solid bauteil1
facet normal 0.995734155178 -0.0922683626413 0.0
outer loop
vertex 10.0749998093 2.29999995232 0.5
vertex 10.0749998093 2.29999995232 0.0
vertex 10.08223629 2.37809348106 0.5
endloop
endfacet
facet normal 0.995734155178 -0.0922683626413 0.0
outer loop
vertex 10.08223629 2.37809348106 0.5
vertex 10.0749998093 2.29999995232 0.0
vertex 10.08223629 2.37809348106 0.0
endloop
endfacet
facet normal 0.961825668812 -0.273662984371 0.0
outer loop
vertex 10.1036996841 2.45352768898 0.0
vertex 10.08223629 2.37809348106 0.5
vertex 10.08223629 2.37809348106 0.0
endloop
endfacet
facet normal 0.961825668812 -0.273662984371 0.0
outer loop
vertex 10.1036996841 2.45352768898 0.0
vertex 10.1036996841 2.45352768898 0.5
vertex 10.08223629 2.37809348106 0.5
endloop
endfacet
facet normal 0.895163297653 -0.445738345385 0.0
outer loop
vertex 10.1036996841 2.45352768898 0.0
vertex 10.1386575699 2.52373361588 0.0
vertex 10.1036996841 2.45352768898 0.5
endloop
endfacet
facet normal 0.895163297653 -0.445738345385 3.95895179203e-16
outer loop
vertex 10.1036996841 2.45352768898 0.5
vertex 10.1386575699 2.52373361588 0.0
vertex 10.1386575699 2.52373361588 0.5
endloop
endfacet
facet normal 0.798017203808 -0.602634608746 5.35247054452e-16
outer loop
vertex 10.1386575699 2.52373361588 0.5
vertex 10.1386575699 2.52373361588 0.0
vertex 10.185921669 2.58632063866 0.0
endloop
endfacet
facet normal 0.673695623875 -0.739008903503 0.0
outer loop
vertex 10.185921669 2.58632063866 0.5
vertex 10.185921669 2.58632063866 0.0
vertex 10.2438802719 2.63915729523 0.0
endloop
endfacet
facet normal 0.526432156563 -0.850217163563 0.0
outer loop
vertex 10.2438802719 2.63915729523 0.5
vertex 10.2438802719 2.63915729523 0.0
vertex 10.3105611801 2.68044447899 0.0
endloop
endfacet
facet normal 0.361241668463 -0.932472229004 0.0
outer loop
vertex 10.3105611801 2.68044447899 0.5
vertex 10.3105611801 2.68044447899 0.0
vertex 10.3836936951 2.70877599716 0.0
endloop
endfacet
facet normal 0.183749511838 -0.982973098755 0.0
outer loop
vertex 10.3836936951 2.70877599716 0.5
vertex 10.3836936951 2.70877599716 0.0
vertex 10.4607858658 2.72318696976 0.0
endloop
endfacet
facet normal -5.66237332426e-15 -1.0 -0.0
outer loop
vertex 10.4607858658 2.72318696976 0.5
vertex 10.4607858658 2.72318696976 0.0
vertex 10.5392141342 2.72318696976 0.0
endloop
endfacet
facet normal -0.183749511838 -0.982973098755 -0.0
outer loop
vertex 10.5392141342 2.72318696976 0.5
vertex 10.5392141342 2.72318696976 0.0
vertex 10.6163063049 2.70877599716 0.0
endloop
endfacet
facet normal -0.361241668463 -0.932472229004 -0.0
outer loop
vertex 10.6163063049 2.70877599716 0.5
vertex 10.6163063049 2.70877599716 0.0
vertex 10.6894388199 2.68044447899 0.0
endloop
endfacet
facet normal -0.526432156563 -0.850217163563 -0.0
outer loop
vertex 10.6894388199 2.68044447899 0.5
vertex 10.6894388199 2.68044447899 0.0
vertex 10.7561197281 2.63915729523 0.0
endloop
endfacet
facet normal -0.673695623875 -0.739008903503 -0.0
outer loop
vertex 10.7561197281 2.63915729523 0.5
vertex 10.7561197281 2.63915729523 0.0
vertex 10.814078331 2.58632063866 0.0
endloop
endfacet
facet normal -0.798017203808 -0.602634608746 5.35247054452e-16
outer loop
vertex 10.814078331 2.58632063866 0.5
vertex 10.814078331 2.58632063866 0.0
vertex 10.8613424301 2.52373361588 0.0
endloop
endfacet
facet normal -0.895163297653 -0.445738345385 -0.0
outer loop
vertex 10.8613424301 2.52373361588 0.5
vertex 10.8613424301 2.52373361588 0.0
vertex 10.8963003159 2.45352768898 0.0
endloop
endfacet
facet normal -0.961825668812 -0.273662984371 -0.0
outer loop
vertex 10.8963003159 2.45352768898 0.5
vertex 10.8963003159 2.45352768898 0.0
vertex 10.91776371 2.37809348106 0.0
endloop
endfacet
facet normal -0.995734155178 -0.0922683626413 -0.0
outer loop
vertex 10.91776371 2.37809348106 0.5
vertex 10.91776371 2.37809348106 0.0
vertex 10.9250001907 2.29999995232 0.0
endloop
endfacet
facet normal -0.995734155178 -0.0922683626413 0.0
outer loop
vertex 10.9250001907 2.29999995232 0.5
vertex 10.91776371 2.37809348106 0.5
vertex 10.9250001907 2.29999995232 0.0
endloop
endfacet
facet normal 0.798017203808 -0.602634608746 0.0
outer loop
vertex 10.1386575699 2.52373361588 0.5
vertex 10.185921669 2.58632063866 0.0
vertex 10.185921669 2.58632063866 0.5
endloop
endfacet
facet normal 0.673695623875 -0.739008903503 0.0
outer loop
vertex 10.185921669 2.58632063866 0.5
vertex 10.2438802719 2.63915729523 0.0
vertex 10.2438802719 2.63915729523 0.5
endloop
endfacet
facet normal 0.526432156563 -0.850217163563 0.0
outer loop
vertex 10.2438802719 2.63915729523 0.5
vertex 10.3105611801 2.68044447899 0.0
vertex 10.3105611801 2.68044447899 0.5
endloop
endfacet
facet normal 0.361241668463 -0.932472229004 0.0
outer loop
vertex 10.3105611801 2.68044447899 0.5
vertex 10.3836936951 2.70877599716 0.0
vertex 10.3836936951 2.70877599716 0.5
endloop
endfacet
facet normal 0.183749511838 -0.982973098755 0.0
outer loop
vertex 10.3836936951 2.70877599716 0.5
vertex 10.4607858658 2.72318696976 0.0
vertex 10.4607858658 2.72318696976 0.5
endloop
endfacet
facet normal -5.66237332426e-15 -1.0 0.0
outer loop
vertex 10.4607858658 2.72318696976 0.5
vertex 10.5392141342 2.72318696976 0.0
vertex 10.5392141342 2.72318696976 0.5
endloop
endfacet
facet normal -0.183749511838 -0.982973098755 0.0
outer loop
vertex 10.5392141342 2.72318696976 0.5
vertex 10.6163063049 2.70877599716 0.0
vertex 10.6163063049 2.70877599716 0.5
endloop
endfacet
facet normal -0.361241668463 -0.932472229004 0.0
outer loop
vertex 10.6163063049 2.70877599716 0.5
vertex 10.6894388199 2.68044447899 0.0
vertex 10.6894388199 2.68044447899 0.5
endloop
endfacet
facet normal -0.526432156563 -0.850217163563 0.0
outer loop
vertex 10.6894388199 2.68044447899 0.5
vertex 10.7561197281 2.63915729523 0.0
vertex 10.7561197281 2.63915729523 0.5
endloop
endfacet
facet normal -0.673695623875 -0.739008903503 6.56371760058e-16
outer loop
vertex 10.7561197281 2.63915729523 0.5
vertex 10.814078331 2.58632063866 0.0
vertex 10.814078331 2.58632063866 0.5
endloop
endfacet
facet normal -0.798017203808 -0.602634608746 0.0
outer loop
vertex 10.814078331 2.58632063866 0.5
vertex 10.8613424301 2.52373361588 0.0
vertex 10.8613424301 2.52373361588 0.5
endloop
endfacet
facet normal -0.895163297653 -0.445738345385 0.0
outer loop
vertex 10.8613424301 2.52373361588 0.5
vertex 10.8963003159 2.45352768898 0.0
vertex 10.8963003159 2.45352768898 0.5
endloop
endfacet
facet normal -0.961825668812 -0.273662984371 0.0
outer loop
vertex 10.8963003159 2.45352768898 0.5
vertex 10.91776371 2.37809348106 0.0
vertex 10.91776371 2.37809348106 0.5
endloop
endfacet
facet normal -1.0 2.96059466175e-15 0.0
outer loop
vertex 10.9250001907 2.29999995232 0.0
vertex 10.9250001907 1.70000004768 0.0
vertex 10.9250001907 2.29999995232 0.5
endloop
endfacet
facet normal -1.0 2.96059466175e-15 0.0
outer loop
vertex 10.9250001907 2.29999995232 0.5
vertex 10.9250001907 1.70000004768 0.0
vertex 10.9250001907 1.70000004768 0.5
endloop
endfacet
facet normal -0.995734155178 0.0922683626413 0.0
outer loop
vertex 10.9250001907 1.70000004768 0.5
vertex 10.9250001907 1.70000004768 0.0
vertex 10.91776371 1.62190639973 0.5
endloop
endfacet
facet normal -0.995734155178 0.0922683626413 0.0
outer loop
vertex 10.91776371 1.62190639973 0.5
vertex 10.9250001907 1.70000004768 0.0
vertex 10.91776371 1.62190639973 0.0
endloop
endfacet
facet normal -0.961825668812 0.273662984371 0.0
outer loop
vertex 10.8963003159 1.54647231102 0.0
vertex 10.91776371 1.62190639973 0.5
vertex 10.91776371 1.62190639973 0.0
endloop
endfacet
facet normal -0.961825668812 0.273662984371 1.21530778495e-16
outer loop
vertex 10.8963003159 1.54647231102 0.0
vertex 10.8963003159 1.54647231102 0.5
vertex 10.91776371 1.62190639973 0.5
endloop
endfacet
facet normal -0.895163297653 0.445738345385 1.99067817144e-16
outer loop
vertex 10.8963003159 1.54647231102 0.0
vertex 10.8613424301 1.47626638412 0.0
vertex 10.8963003159 1.54647231102 0.5
endloop
endfacet
facet normal -0.895163297653 0.445738345385 1.97947589602e-16
outer loop
vertex 10.8963003159 1.54647231102 0.5
vertex 10.8613424301 1.47626638412 0.0
vertex 10.8613424301 1.47626638412 0.5
endloop
endfacet
facet normal -0.798017203808 0.602634608746 2.67623527226e-16
outer loop
vertex 10.8613424301 1.47626638412 0.5
vertex 10.8613424301 1.47626638412 0.0
vertex 10.814078331 1.41367936134 0.0
endloop
endfacet
facet normal -0.673695623875 0.739008903503 0.0
outer loop
vertex 10.814078331 1.41367936134 0.5
vertex 10.814078331 1.41367936134 0.0
vertex 10.7561197281 1.36084270477 0.0
endloop
endfacet
facet normal -0.526432156563 0.850217163563 0.0
outer loop
vertex 10.7561197281 1.36084270477 0.5
vertex 10.7561197281 1.36084270477 0.0
vertex 10.6894388199 1.31955564022 0.0
endloop
endfacet
facet normal -0.361241668463 0.932472229004 0.0
outer loop
vertex 10.6894388199 1.31955564022 0.5
vertex 10.6894388199 1.31955564022 0.0
vertex 10.6163063049 1.29122412205 0.0
endloop
endfacet
facet normal -0.183749511838 0.982973098755 0.0
outer loop
vertex 10.6163063049 1.29122412205 0.5
vertex 10.6163063049 1.29122412205 0.0
vertex 10.5392141342 1.27681303024 0.0
endloop
endfacet
facet normal 0.0 1.0 0.0
outer loop
vertex 10.5392141342 1.27681303024 0.5
vertex 10.5392141342 1.27681303024 0.0
vertex 10.4607858658 1.27681303024 0.0
endloop
endfacet
facet normal 0.183749511838 0.982973098755 0.0
outer loop
vertex 10.4607858658 1.27681303024 0.5
vertex 10.4607858658 1.27681303024 0.0
vertex 10.3836936951 1.29122412205 0.0
endloop
endfacet
facet normal 0.361241668463 0.932472229004 0.0
outer loop
vertex 10.3836936951 1.29122412205 0.5
vertex 10.3836936951 1.29122412205 0.0
vertex 10.3105611801 1.31955564022 0.0
endloop
endfacet
facet normal 0.526432156563 0.850217163563 0.0
outer loop
vertex 10.3105611801 1.31955564022 0.5
vertex 10.3105611801 1.31955564022 0.0
vertex 10.2438802719 1.36084270477 0.0
endloop
endfacet
facet normal 0.673695623875 0.739008903503 0.0
outer loop
vertex 10.2438802719 1.36084270477 0.5
vertex 10.2438802719 1.36084270477 0.0
vertex 10.185921669 1.41367936134 0.0
endloop
endfacet
facet normal 0.798017203808 0.602634608746 0.0
outer loop
vertex 10.185921669 1.41367936134 0.5
vertex 10.185921669 1.41367936134 0.0
vertex 10.1386575699 1.47626638412 0.0
endloop
endfacet
facet normal 0.895163297653 0.445738345385 -1.97947589602e-16
outer loop
vertex 10.1386575699 1.47626638412 0.5
vertex 10.1386575699 1.47626638412 0.0
vertex 10.1036996841 1.54647231102 0.0
endloop
endfacet
facet normal 0.961825668812 0.273662984371 0.0
outer loop
vertex 10.1036996841 1.54647231102 0.5
vertex 10.1036996841 1.54647231102 0.0
vertex 10.08223629 1.62190639973 0.0
endloop
endfacet
facet normal 0.995734155178 0.0922683626413 0.0
outer loop
vertex 10.08223629 1.62190639973 0.5
vertex 10.08223629 1.62190639973 0.0
vertex 10.0749998093 1.70000004768 0.0
endloop
endfacet
facet normal 0.995734155178 0.0922683626413 0.0
outer loop
vertex 10.0749998093 1.70000004768 0.5
vertex 10.08223629 1.62190639973 0.5
vertex 10.0749998093 1.70000004768 0.0
endloop
endfacet
facet normal -0.798017203808 0.602634608746 0.0
outer loop
vertex 10.8613424301 1.47626638412 0.5
vertex 10.814078331 1.41367936134 0.0
vertex 10.814078331 1.41367936134 0.5
endloop
endfacet
facet normal -0.673695623875 0.739008903503 0.0
outer loop
vertex 10.814078331 1.41367936134 0.5
vertex 10.7561197281 1.36084270477 0.0
vertex 10.7561197281 1.36084270477 0.5
endloop
endfacet
facet normal -0.526432156563 0.850217163563 0.0
outer loop
vertex 10.7561197281 1.36084270477 0.5
vertex 10.6894388199 1.31955564022 0.0
vertex 10.6894388199 1.31955564022 0.5
endloop
endfacet
facet normal -0.361241668463 0.932472229004 0.0
outer loop
vertex 10.6894388199 1.31955564022 0.5
vertex 10.6163063049 1.29122412205 0.0
vertex 10.6163063049 1.29122412205 0.5
endloop
endfacet
facet normal -0.183749511838 0.982973098755 0.0
outer loop
vertex 10.6163063049 1.29122412205 0.5
vertex 10.5392141342 1.27681303024 0.0
vertex 10.5392141342 1.27681303024 0.5
endloop
endfacet
facet normal 0.0 1.0 -0.0
outer loop
vertex 10.5392141342 1.27681303024 0.5
vertex 10.4607858658 1.27681303024 0.0
vertex 10.4607858658 1.27681303024 0.5
endloop
endfacet
facet normal 0.183749511838 0.982973098755 -0.0
outer loop
vertex 10.4607858658 1.27681303024 0.5
vertex 10.3836936951 1.29122412205 0.0
vertex 10.3836936951 1.29122412205 0.5
endloop
endfacet
facet normal 0.361241668463 0.932472229004 -0.0
outer loop
vertex 10.3836936951 1.29122412205 0.5
vertex 10.3105611801 1.31955564022 0.0
vertex 10.3105611801 1.31955564022 0.5
endloop
endfacet
facet normal 0.526432156563 0.850217163563 -0.0
outer loop
vertex 10.3105611801 1.31955564022 0.5
vertex 10.2438802719 1.36084270477 0.0
vertex 10.2438802719 1.36084270477 0.5
endloop
endfacet
facet normal 0.673695623875 0.739008903503 -0.0
outer loop
vertex 10.2438802719 1.36084270477 0.5
vertex 10.185921669 1.41367936134 0.0
vertex 10.185921669 1.41367936134 0.5
endloop
endfacet
facet normal 0.798017203808 0.602634608746 -2.67623527226e-16
outer loop
vertex 10.185921669 1.41367936134 0.5
vertex 10.1386575699 1.47626638412 0.0
vertex 10.1386575699 1.47626638412 0.5
endloop
endfacet
facet normal 0.895163297653 0.445738345385 -0.0
outer loop
vertex 10.1386575699 1.47626638412 0.5
vertex 10.1036996841 1.54647231102 0.0
vertex 10.1036996841 1.54647231102 0.5
endloop
endfacet
facet normal 0.961825668812 0.273662984371 -0.0
outer loop
vertex 10.1036996841 1.54647231102 0.5
vertex 10.08223629 1.62190639973 0.0
vertex 10.08223629 1.62190639973 0.5
endloop
endfacet
facet normal 1.0 5.9211893235e-15 0.0
outer loop
vertex 10.0749998093 1.70000004768 0.0
vertex 10.0749998093 2.29999995232 0.0
vertex 10.0749998093 1.70000004768 0.5
endloop
endfacet
facet normal 1.0 5.9211893235e-15 -0.0
outer loop
vertex 10.0749998093 1.70000004768 0.5
vertex 10.0749998093 2.29999995232 0.0
vertex 10.0749998093 2.29999995232 0.5
endloop
endfacet
facet normal -0.991444885731 -0.130526185036 -0.0
outer loop
vertex 5.2173333168 1.05823433399 0.5
vertex 5.2173333168 1.05823433399 0.0
vertex 5.22499990463 1.0 0.5
endloop
endfacet
facet normal -0.923879504204 -0.382683426142 0.0
outer loop
vertex 5.2173333168 1.05823433399 0.5
vertex 5.19485569 1.11249995232 0.0
vertex 5.2173333168 1.05823433399 0.0
endloop
endfacet
facet normal -0.923879504204 -0.382683426142 -0.0
outer loop
vertex 5.2173333168 1.05823433399 0.5
vertex 5.19485569 1.11249995232 0.5
vertex 5.19485569 1.11249995232 0.0
endloop
endfacet
facet normal -0.793353319168 -0.608761429787 0.0
outer loop
vertex 5.19485569 1.11249995232 0.0
vertex 5.19485569 1.11249995232 0.5
vertex 5.15909910202 1.15909898281 0.0
endloop
endfacet
facet normal -0.793353319168 -0.608761429787 0.0
outer loop
vertex 5.15909910202 1.15909898281 0.0
vertex 5.19485569 1.11249995232 0.5
vertex 5.15909910202 1.15909898281 0.5
endloop
endfacet
facet normal -0.608761429787 -0.793353319168 0.0
outer loop
vertex 5.11250019073 1.19485569 0.0
vertex 5.15909910202 1.15909898281 0.5
vertex 5.11250019073 1.19485569 0.5
endloop
endfacet
facet normal -0.382683426142 -0.923879504204 0.0
outer loop
vertex 5.05823421478 1.2173333168 0.0
vertex 5.11250019073 1.19485569 0.5
vertex 5.05823421478 1.2173333168 0.5
endloop
endfacet
facet normal -0.130526185036 -0.991444885731 0.0
outer loop
vertex 5.0 1.22500002384 0.0
vertex 5.05823421478 1.2173333168 0.5
vertex 5.0 1.22500002384 0.5
endloop
endfacet
facet normal 0.130526185036 -0.991444885731 0.0
outer loop
vertex 4.94176578522 1.2173333168 0.0
vertex 5.0 1.22500002384 0.5
vertex 4.94176578522 1.2173333168 0.5
endloop
endfacet
facet normal 0.382683426142 -0.923879504204 0.0
outer loop
vertex 4.88749980927 1.19485569 0.0
vertex 4.94176578522 1.2173333168 0.5
vertex 4.88749980927 1.19485569 0.5
endloop
endfacet
facet normal 0.608761429787 -0.793353319168 -3.47022754575e-16
outer loop
vertex 4.84090089798 1.15909898281 0.0
vertex 4.88749980927 1.19485569 0.5
vertex 4.84090089798 1.15909898281 0.5
endloop
endfacet
facet normal 0.793353319168 -0.608761429787 0.0
outer loop
vertex 4.80514431 1.11249995232 0.0
vertex 4.84090089798 1.15909898281 0.5
vertex 4.80514431 1.11249995232 0.5
endloop
endfacet
facet normal 0.923879504204 -0.382683426142 -1.69819637127e-16
outer loop
vertex 4.7826666832 1.05823433399 0.0
vertex 4.80514431 1.11249995232 0.5
vertex 4.7826666832 1.05823433399 0.5
endloop
endfacet
facet normal 0.991444885731 -0.130526185036 0.0
outer loop
vertex 4.77500009537 1.0 0.0
vertex 4.7826666832 1.05823433399 0.5
vertex 4.77500009537 1.0 0.5
endloop
endfacet
facet normal 0.991444885731 0.130526185036 2.76879850334e-17
outer loop
vertex 4.7826666832 0.941765725613 0.0
vertex 4.77500009537 1.0 0.5
vertex 4.7826666832 0.941765725613 0.5
endloop
endfacet
facet normal 0.923879504204 0.382683426142 8.12180916372e-17
outer loop
vertex 4.80514431 0.887499988079 0.0
vertex 4.7826666832 0.941765725613 0.5
vertex 4.80514431 0.887499988079 0.5
endloop
endfacet
facet normal 0.793353319168 0.608761429787 1.40285795248e-16
outer loop
vertex 4.84090089798 0.840900957584 0.0
vertex 4.80514431 0.887499988079 0.5
vertex 4.84090089798 0.840900957584 0.5
endloop
endfacet
facet normal 0.608761429787 0.793353319168 0.0
outer loop
vertex 4.88749980927 0.805144309998 0.0
vertex 4.84090089798 0.840900957584 0.5
vertex 4.88749980927 0.805144309998 0.5
endloop
endfacet
facet normal 0.382683426142 0.923879504204 0.0
outer loop
vertex 4.94176578522 0.782666683197 0.0
vertex 4.88749980927 0.805144309998 0.5
vertex 4.94176578522 0.782666683197 0.5
endloop
endfacet
facet normal 0.130526185036 0.991444885731 0.0
outer loop
vertex 5.0 0.774999976158 0.0
vertex 4.94176578522 0.782666683197 0.5
vertex 5.0 0.774999976158 0.5
endloop
endfacet
facet normal -0.130526185036 0.991444885731 0.0
outer loop
vertex 5.05823421478 0.782666683197 0.0
vertex 5.0 0.774999976158 0.5
vertex 5.05823421478 0.782666683197 0.5
endloop
endfacet
facet normal -0.382683426142 0.923879504204 0.0
outer loop
vertex 5.11250019073 0.805144309998 0.0
vertex 5.05823421478 0.782666683197 0.5
vertex 5.11250019073 0.805144309998 0.5
endloop
endfacet
facet normal -0.608761429787 0.793353319168 0.0
outer loop
vertex 5.15909910202 0.840900957584 0.0
vertex 5.11250019073 0.805144309998 0.5
vertex 5.15909910202 0.840900957584 0.5
endloop
endfacet
facet normal -0.793353319168 0.608761429787 0.0
outer loop
vertex 5.19485569 0.887499988079 0.0
vertex 5.15909910202 0.840900957584 0.5
vertex 5.19485569 0.887499988079 0.5
endloop
endfacet
facet normal -0.923879504204 0.382683426142 -8.86015521069e-17
outer loop
vertex 5.2173333168 0.941765725613 0.0
vertex 5.19485569 0.887499988079 0.5
vertex 5.2173333168 0.941765725613 0.5
endloop
endfacet
facet normal -0.991444885731 0.130526185036 0.0
outer loop
vertex 5.22499990463 1.0 0.0
vertex 5.2173333168 0.941765725613 0.5
vertex 5.22499990463 1.0 0.5
endloop
endfacet
facet normal -0.991444885731 -0.130526185036 0.0
outer loop
vertex 5.2173333168 1.05823433399 0.0
vertex 5.22499990463 1.0 0.0
vertex 5.22499990463 1.0 0.5
endloop
endfacet
facet normal -0.608761429787 -0.793353319168 0.0
outer loop
vertex 5.15909910202 1.15909898281 0.0
vertex 5.15909910202 1.15909898281 0.5
vertex 5.11250019073 1.19485569 0.0
endloop
endfacet
facet normal -0.382683426142 -0.923879504204 0.0
outer loop
vertex 5.11250019073 1.19485569 0.0
vertex 5.11250019073 1.19485569 0.5
vertex 5.05823421478 1.2173333168 0.0
endloop
endfacet
facet normal -0.130526185036 -0.991444885731 0.0
outer loop
vertex 5.05823421478 1.2173333168 0.0
vertex 5.05823421478 1.2173333168 0.5
vertex 5.0 1.22500002384 0.0
endloop
endfacet
facet normal 0.130526185036 -0.991444885731 0.0
outer loop
vertex 5.0 1.22500002384 0.0
vertex 5.0 1.22500002384 0.5
vertex 4.94176578522 1.2173333168 0.0
endloop
endfacet
facet normal 0.382683426142 -0.923879504204 0.0
outer loop
vertex 4.94176578522 1.2173333168 0.0
vertex 4.94176578522 1.2173333168 0.5
vertex 4.88749980927 1.19485569 0.0
endloop
endfacet
facet normal 0.608761429787 -0.793353319168 0.0
outer loop
vertex 4.88749980927 1.19485569 0.0
vertex 4.88749980927 1.19485569 0.5
vertex 4.84090089798 1.15909898281 0.0
endloop
endfacet
facet normal 0.793353319168 -0.608761429787 -2.70344382341e-16
outer loop
vertex 4.84090089798 1.15909898281 0.0
vertex 4.84090089798 1.15909898281 0.5
vertex 4.80514431 1.11249995232 0.0
endloop
endfacet
facet normal 0.923879504204 -0.382683426142 0.0
outer loop
vertex 4.80514431 1.11249995232 0.0
vertex 4.80514431 1.11249995232 0.5
vertex 4.7826666832 1.05823433399 0.0
endloop
endfacet
facet normal 0.991444885731 -0.130526185036 -5.79652703772e-17
outer loop
vertex 4.7826666832 1.05823433399 0.0
vertex 4.7826666832 1.05823433399 0.5
vertex 4.77500009537 1.0 0.0
endloop
endfacet
facet normal 0.991444885731 0.130526185036 -0.0
outer loop
vertex 4.77500009537 1.0 0.0
vertex 4.77500009537 1.0 0.5
vertex 4.7826666832 0.941765725613 0.0
endloop
endfacet
facet normal 0.923879504204 0.382683426142 8.4972790169e-17
outer loop
vertex 4.7826666832 0.941765725613 0.0
vertex 4.7826666832 0.941765725613 0.5
vertex 4.80514431 0.887499988079 0.0
endloop
endfacet
facet normal 0.793353319168 0.608761429787 1.35172191171e-16
outer loop
vertex 4.80514431 0.887499988079 0.0
vertex 4.80514431 0.887499988079 0.5
vertex 4.84090089798 0.840900957584 0.0
endloop
endfacet
facet normal 0.608761429787 0.793353319168 1.76159824321e-16
outer loop
vertex 4.84090089798 0.840900957584 0.0
vertex 4.84090089798 0.840900957584 0.5
vertex 4.88749980927 0.805144309998 0.0
endloop
endfacet
facet normal 0.382683426142 0.923879504204 -0.0
outer loop
vertex 4.88749980927 0.805144309998 0.0
vertex 4.88749980927 0.805144309998 0.5
vertex 4.94176578522 0.782666683197 0.0
endloop
endfacet
facet normal 0.130526185036 0.991444885731 -0.0
outer loop
vertex 4.94176578522 0.782666683197 0.0
vertex 4.94176578522 0.782666683197 0.5
vertex 5.0 0.774999976158 0.0
endloop
endfacet
facet normal -0.130526185036 0.991444885731 0.0
outer loop
vertex 5.0 0.774999976158 0.0
vertex 5.0 0.774999976158 0.5
vertex 5.05823421478 0.782666683197 0.0
endloop
endfacet
facet normal -0.382683426142 0.923879504204 0.0
outer loop
vertex 5.05823421478 0.782666683197 0.0
vertex 5.05823421478 0.782666683197 0.5
vertex 5.11250019073 0.805144309998 0.0
endloop
endfacet
facet normal -0.608761429787 0.793353319168 0.0
outer loop
vertex 5.11250019073 0.805144309998 0.0
vertex 5.11250019073 0.805144309998 0.5
vertex 5.15909910202 0.840900957584 0.0
endloop
endfacet
facet normal -0.793353319168 0.608761429787 0.0
outer loop
vertex 5.15909910202 0.840900957584 0.0
vertex 5.15909910202 0.840900957584 0.5
vertex 5.19485569 0.887499988079 0.0
endloop
endfacet
facet normal -0.923879504204 0.382683426142 0.0
outer loop
vertex 5.19485569 0.887499988079 0.0
vertex 5.19485569 0.887499988079 0.5
vertex 5.2173333168 0.941765725613 0.0
endloop
endfacet
facet normal -0.991444885731 0.130526185036 -2.89826351886e-17
outer loop
vertex 5.2173333168 0.941765725613 0.0
vertex 5.2173333168 0.941765725613 0.5
vertex 5.22499990463 1.0 0.0
endloop
endfacet
facet normal -0.991444885731 -0.130526185036 1.15930540754e-16
outer loop
vertex 5.2173333168 3.05823421478 0.5
vertex 5.2173333168 3.05823421478 0.0
vertex 5.22499990463 3.0 0.5
endloop
endfacet
facet normal -0.923879504204 -0.382683426142 3.39639274253e-16
outer loop
vertex 5.2173333168 3.05823421478 0.5
vertex 5.19485569 3.11249995232 0.0
vertex 5.2173333168 3.05823421478 0.0
endloop
endfacet
facet normal -0.923879504204 -0.382683426142 3.39891160676e-16
outer loop
vertex 5.2173333168 3.05823421478 0.5
vertex 5.19485569 3.11249995232 0.5
vertex 5.19485569 3.11249995232 0.0
endloop
endfacet
facet normal -0.793353319168 -0.608761429787 5.40688764682e-16
outer loop
vertex 5.19485569 3.11249995232 0.0
vertex 5.19485569 3.11249995232 0.5
vertex 5.15909910202 3.15909910202 0.0
endloop
endfacet
facet normal -0.793353319168 -0.608761429787 0.0
outer loop
vertex 5.15909910202 3.15909910202 0.0
vertex 5.19485569 3.11249995232 0.5
vertex 5.15909910202 3.15909910202 0.5
endloop
endfacet
facet normal -0.608761429787 -0.793353319168 7.01428936533e-16
outer loop
vertex 5.11250019073 3.19485569 0.0
vertex 5.15909910202 3.15909910202 0.5
vertex 5.11250019073 3.19485569 0.5
endloop
endfacet
facet normal -0.382683426142 -0.923879504204 0.0
outer loop
vertex 5.05823421478 3.2173333168 0.0
vertex 5.11250019073 3.19485569 0.5
vertex 5.05823421478 3.2173333168 0.5
endloop
endfacet
facet normal -0.130526185036 -0.991444885731 0.0
outer loop
vertex 5.0 3.22499990463 0.0
vertex 5.05823421478 3.2173333168 0.5
vertex 5.0 3.22499990463 0.5
endloop
endfacet
facet normal 0.130526185036 -0.991444885731 0.0
outer loop
vertex 4.94176578522 3.2173333168 0.0
vertex 5.0 3.22499990463 0.5
vertex 4.94176578522 3.2173333168 0.5
endloop
endfacet
facet normal 0.382683426142 -0.923879504204 -8.26947837311e-16
outer loop
vertex 4.88749980927 3.19485569 0.0
vertex 4.94176578522 3.2173333168 0.5
vertex 4.88749980927 3.19485569 0.5
endloop
endfacet
facet normal 0.608761429787 -0.793353319168 0.0
outer loop
vertex 4.84090089798 3.15909910202 0.0
vertex 4.88749980927 3.19485569 0.5
vertex 4.84090089798 3.15909910202 0.5
endloop
endfacet
facet normal 0.793353319168 -0.608761429787 -5.46376220346e-16
outer loop
vertex 4.80514431 3.11249995232 0.0
vertex 4.84090089798 3.15909910202 0.5
vertex 4.80514431 3.11249995232 0.5
endloop
endfacet
facet normal 0.923879504204 -0.382683426142 0.0
outer loop
vertex 4.7826666832 3.05823421478 0.0
vertex 4.80514431 3.11249995232 0.5
vertex 4.7826666832 3.05823421478 0.5
endloop
endfacet
facet normal 0.991444885731 -0.130526185036 0.0
outer loop
vertex 4.77500009537 3.0 0.0
vertex 4.7826666832 3.05823421478 0.5
vertex 4.77500009537 3.0 0.5
endloop
endfacet
facet normal 0.991444885731 0.130526185036 0.0
outer loop
vertex 4.7826666832 2.94176578522 0.0
vertex 4.77500009537 3.0 0.5
vertex 4.7826666832 2.94176578522 0.5
endloop
endfacet
facet normal 0.923879504204 0.382683426142 3.39639274253e-16
outer loop
vertex 4.80514431 2.88750004768 0.0
vertex 4.7826666832 2.94176578522 0.5
vertex 4.80514431 2.88750004768 0.5
endloop
endfacet
facet normal 0.793353319168 0.608761429787 0.0
outer loop
vertex 4.84090089798 2.84090089798 0.0
vertex 4.80514431 2.88750004768 0.5
vertex 4.84090089798 2.84090089798 0.5
endloop
endfacet
facet normal 0.608761429787 0.793353319168 7.01428936533e-16
outer loop
vertex 4.88749980927 2.80514431 0.0
vertex 4.84090089798 2.84090089798 0.5
vertex 4.88749980927 2.80514431 0.5
endloop
endfacet
facet normal 0.382683426142 0.923879504204 0.0
outer loop
vertex 4.94176578522 2.7826666832 0.0
vertex 4.88749980927 2.80514431 0.5
vertex 4.94176578522 2.7826666832 0.5
endloop
endfacet
facet normal 0.130526185036 0.991444885731 0.0
outer loop
vertex 5.0 2.77500009537 0.0
vertex 4.94176578522 2.7826666832 0.5
vertex 5.0 2.77500009537 0.5
endloop
endfacet
facet normal -0.130526185036 0.991444885731 0.0
outer loop
vertex 5.05823421478 2.7826666832 0.0
vertex 5.0 2.77500009537 0.5
vertex 5.05823421478 2.7826666832 0.5
endloop
endfacet
facet normal -0.382683426142 0.923879504204 -8.26947837311e-16
outer loop
vertex 5.11250019073 2.80514431 0.0
vertex 5.05823421478 2.7826666832 0.5
vertex 5.11250019073 2.80514431 0.5
endloop
endfacet
facet normal -0.608761429787 0.793353319168 0.0
outer loop
vertex 5.15909910202 2.84090089798 0.0
vertex 5.11250019073 2.80514431 0.5
vertex 5.15909910202 2.84090089798 0.5
endloop
endfacet
facet normal -0.793353319168 0.608761429787 -5.46376220346e-16
outer loop
vertex 5.19485569 2.88750004768 0.0
vertex 5.15909910202 2.84090089798 0.5
vertex 5.19485569 2.88750004768 0.5
endloop
endfacet
facet normal -0.923879504204 0.382683426142 -3.39639274253e-16
outer loop
vertex 5.2173333168 2.94176578522 0.0
vertex 5.19485569 2.88750004768 0.5
vertex 5.2173333168 2.94176578522 0.5
endloop
endfacet
facet normal -0.991444885731 0.130526185036 0.0
outer loop
vertex 5.22499990463 3.0 0.0
vertex 5.2173333168 2.94176578522 0.5
vertex 5.22499990463 3.0 0.5
endloop
endfacet
facet normal -0.991444885731 -0.130526185036 0.0
outer loop
vertex 5.2173333168 3.05823421478 0.0
vertex 5.22499990463 3.0 0.0
vertex 5.22499990463 3.0 0.5
endloop
endfacet
facet normal -0.608761429787 -0.793353319168 0.0
outer loop
vertex 5.15909910202 3.15909910202 0.0
vertex 5.15909910202 3.15909910202 0.5
vertex 5.11250019073 3.19485569 0.0
endloop
endfacet
facet normal -0.382683426142 -0.923879504204 8.20569838037e-16
outer loop
vertex 5.11250019073 3.19485569 0.0
vertex 5.11250019073 3.19485569 0.5
vertex 5.05823421478 3.2173333168 0.0
endloop
endfacet
facet normal -0.130526185036 -0.991444885731 0.0
outer loop
vertex 5.05823421478 3.2173333168 0.0
vertex 5.05823421478 3.2173333168 0.5
vertex 5.0 3.22499990463 0.0
endloop
endfacet
facet normal 0.130526185036 -0.991444885731 0.0
outer loop
vertex 5.0 3.22499990463 0.0
vertex 5.0 3.22499990463 0.5
vertex 4.94176578522 3.2173333168 0.0
endloop
endfacet
facet normal 0.382683426142 -0.923879504204 0.0
outer loop
vertex 4.94176578522 3.2173333168 0.0
vertex 4.94176578522 3.2173333168 0.5
vertex 4.88749980927 3.19485569 0.0
endloop
endfacet
facet normal 0.608761429787 -0.793353319168 -7.04639297283e-16
outer loop
vertex 4.88749980927 3.19485569 0.0
vertex 4.88749980927 3.19485569 0.5
vertex 4.84090089798 3.15909910202 0.0
endloop
endfacet
facet normal 0.793353319168 -0.608761429787 0.0
outer loop
vertex 4.84090089798 3.15909910202 0.0
vertex 4.84090089798 3.15909910202 0.5
vertex 4.80514431 3.11249995232 0.0
endloop
endfacet
facet normal 0.923879504204 -0.382683426142 -3.39891160676e-16
outer loop
vertex 4.80514431 3.11249995232 0.0
vertex 4.80514431 3.11249995232 0.5
vertex 4.7826666832 3.05823421478 0.0
endloop
endfacet
facet normal 0.991444885731 -0.130526185036 0.0
outer loop
vertex 4.7826666832 3.05823421478 0.0
vertex 4.7826666832 3.05823421478 0.5
vertex 4.77500009537 3.0 0.0
endloop
endfacet
facet normal 0.991444885731 0.130526185036 -0.0
outer loop
vertex 4.77500009537 3.0 0.0
vertex 4.77500009537 3.0 0.5
vertex 4.7826666832 2.94176578522 0.0
endloop
endfacet
facet normal 0.923879504204 0.382683426142 -0.0
outer loop
vertex 4.7826666832 2.94176578522 0.0
vertex 4.7826666832 2.94176578522 0.5
vertex 4.80514431 2.88750004768 0.0
endloop
endfacet
facet normal 0.793353319168 0.608761429787 5.40688764682e-16
outer loop
vertex 4.80514431 2.88750004768 0.0
vertex 4.80514431 2.88750004768 0.5
vertex 4.84090089798 2.84090089798 0.0
endloop
endfacet
facet normal 0.608761429787 0.793353319168 -0.0
outer loop
vertex 4.84090089798 2.84090089798 0.0
vertex 4.84090089798 2.84090089798 0.5
vertex 4.88749980927 2.80514431 0.0
endloop
endfacet
facet normal 0.382683426142 0.923879504204 8.20569838037e-16
outer loop
vertex 4.88749980927 2.80514431 0.0
vertex 4.88749980927 2.80514431 0.5
vertex 4.94176578522 2.7826666832 0.0
endloop
endfacet
facet normal 0.130526185036 0.991444885731 -0.0
outer loop
vertex 4.94176578522 2.7826666832 0.0
vertex 4.94176578522 2.7826666832 0.5
vertex 5.0 2.77500009537 0.0
endloop
endfacet
facet normal -0.130526185036 0.991444885731 0.0
outer loop
vertex 5.0 2.77500009537 0.0
vertex 5.0 2.77500009537 0.5
vertex 5.05823421478 2.7826666832 0.0
endloop
endfacet
facet normal -0.382683426142 0.923879504204 0.0
outer loop
vertex 5.05823421478 2.7826666832 0.0
vertex 5.05823421478 2.7826666832 0.5
vertex 5.11250019073 2.80514431 0.0
endloop
endfacet
facet normal -0.608761429787 0.793353319168 -7.04639297283e-16
outer loop
vertex 5.11250019073 2.80514431 0.0
vertex 5.11250019073 2.80514431 0.5
vertex 5.15909910202 2.84090089798 0.0
endloop
endfacet
facet normal -0.793353319168 0.608761429787 0.0
outer loop
vertex 5.15909910202 2.84090089798 0.0
vertex 5.15909910202 2.84090089798 0.5
vertex 5.19485569 2.88750004768 0.0
endloop
endfacet
facet normal -0.923879504204 0.382683426142 -3.39891160676e-16
outer loop
vertex 5.19485569 2.88750004768 0.0
vertex 5.19485569 2.88750004768 0.5
vertex 5.2173333168 2.94176578522 0.0
endloop
endfacet
facet normal -0.991444885731 0.130526185036 -1.15930540754e-16
outer loop
vertex 5.2173333168 2.94176578522 0.0
vertex 5.2173333168 2.94176578522 0.5
vertex 5.22499990463 3.0 0.0
endloop
endfacet
facet normal -0.991444885731 -0.130526185036 -0.0
outer loop
vertex 2.7173333168 1.05823433399 0.5
vertex 2.7173333168 1.05823433399 0.0
vertex 2.72499990463 1.0 0.5
endloop
endfacet
facet normal -0.923879504204 -0.382683426142 0.0
outer loop
vertex 2.7173333168 1.05823433399 0.5
vertex 2.69485569 1.11249995232 0.0
vertex 2.7173333168 1.05823433399 0.0
endloop
endfacet
facet normal -0.923879504204 -0.382683426142 -0.0
outer loop
vertex 2.7173333168 1.05823433399 0.5
vertex 2.69485569 1.11249995232 0.5
vertex 2.69485569 1.11249995232 0.0
endloop
endfacet
facet normal -0.793353319168 -0.608761429787 0.0
outer loop
vertex 2.69485569 1.11249995232 0.0
vertex 2.69485569 1.11249995232 0.5
vertex 2.65909910202 1.15909898281 0.0
endloop
endfacet
facet normal -0.793353319168 -0.608761429787 0.0
outer loop
vertex 2.65909910202 1.15909898281 0.0
vertex 2.69485569 1.11249995232 0.5
vertex 2.65909910202 1.15909898281 0.5
endloop
endfacet
facet normal -0.608761429787 -0.793353319168 -5.46376220346e-16
outer loop
vertex 2.61249995232 1.19485569 0.0
vertex 2.65909910202 1.15909898281 0.5
vertex 2.61249995232 1.19485569 0.5
endloop
endfacet
facet normal -0.382683426142 -0.923879504204 0.0
outer loop
vertex 2.55823421478 1.2173333168 0.0
vertex 2.61249995232 1.19485569 0.5
vertex 2.55823421478 1.2173333168 0.5
endloop
endfacet
facet normal -0.130526185036 -0.991444885731 0.0
outer loop
vertex 2.5 1.22500002384 0.0
vertex 2.55823421478 1.2173333168 0.5
vertex 2.5 1.22500002384 0.5
endloop
endfacet
facet normal 0.130526185036 -0.991444885731 1.1444366706e-16
outer loop
vertex 2.44176578522 1.2173333168 0.0
vertex 2.5 1.22500002384 0.5
vertex 2.44176578522 1.2173333168 0.5
endloop
endfacet
facet normal 0.382683426142 -0.923879504204 3.39639274253e-16
outer loop
vertex 2.38750004768 1.19485569 0.0
vertex 2.44176578522 1.2173333168 0.5
vertex 2.38750004768 1.19485569 0.5
endloop
endfacet
facet normal 0.608761429787 -0.793353319168 0.0
outer loop
vertex 2.34090089798 1.15909898281 0.0
vertex 2.38750004768 1.19485569 0.5
vertex 2.34090089798 1.15909898281 0.5
endloop
endfacet
facet normal 0.793353319168 -0.608761429787 0.0
outer loop
vertex 2.30514431 1.11249995232 0.0
vertex 2.34090089798 1.15909898281 0.5
vertex 2.30514431 1.11249995232 0.5
endloop
endfacet
facet normal 0.923879504204 -0.382683426142 -1.69819637127e-16
outer loop
vertex 2.2826666832 1.05823433399 0.0
vertex 2.30514431 1.11249995232 0.5
vertex 2.2826666832 1.05823433399 0.5
endloop
endfacet
facet normal 0.991444885731 -0.130526185036 0.0
outer loop
vertex 2.27500009537 1.0 0.0
vertex 2.2826666832 1.05823433399 0.5
vertex 2.27500009537 1.0 0.5
endloop
endfacet
facet normal 0.991444885731 0.130526185036 2.76879850334e-17
outer loop
vertex 2.2826666832 0.941765725613 0.0
vertex 2.27500009537 1.0 0.5
vertex 2.2826666832 0.941765725613 0.5
endloop
endfacet
facet normal 0.923879504204 0.382683426142 8.12180916372e-17
outer loop
vertex 2.30514431 0.887499988079 0.0
vertex 2.2826666832 0.941765725613 0.5
vertex 2.30514431 0.887499988079 0.5
endloop
endfacet
facet normal 0.793353319168 0.608761429787 1.3290232816e-16
outer loop
vertex 2.34090089798 0.840900957584 0.0
vertex 2.30514431 0.887499988079 0.5
vertex 2.34090089798 0.840900957584 0.5
endloop
endfacet
facet normal 0.608761429787 0.793353319168 -3.6178966228e-16
outer loop
vertex 2.38750004768 0.805144309998 0.0
vertex 2.34090089798 0.840900957584 0.5
vertex 2.38750004768 0.805144309998 0.5
endloop
endfacet
facet normal 0.382683426142 0.923879504204 -3.39639274253e-16
outer loop
vertex 2.44176578522 0.782666683197 0.0
vertex 2.38750004768 0.805144309998 0.5
vertex 2.44176578522 0.782666683197 0.5
endloop
endfacet
facet normal 0.130526185036 0.991444885731 0.0
outer loop
vertex 2.5 0.774999976158 0.0
vertex 2.44176578522 0.782666683197 0.5
vertex 2.5 0.774999976158 0.5
endloop
endfacet
facet normal -0.130526185036 0.991444885731 0.0
outer loop
vertex 2.55823421478 0.782666683197 0.0
vertex 2.5 0.774999976158 0.5
vertex 2.55823421478 0.782666683197 0.5
endloop
endfacet
facet normal -0.382683426142 0.923879504204 3.39639274253e-16
outer loop
vertex 2.61249995232 0.805144309998 0.0
vertex 2.55823421478 0.782666683197 0.5
vertex 2.61249995232 0.805144309998 0.5
endloop
endfacet
facet normal -0.608761429787 0.793353319168 0.0
outer loop
vertex 2.65909910202 0.840900957584 0.0
vertex 2.61249995232 0.805144309998 0.5
vertex 2.65909910202 0.840900957584 0.5
endloop
endfacet
facet normal -0.793353319168 0.608761429787 0.0
outer loop
vertex 2.69485569 0.887499988079 0.0
vertex 2.65909910202 0.840900957584 0.5
vertex 2.69485569 0.887499988079 0.5
endloop
endfacet
facet normal -0.923879504204 0.382683426142 0.0
outer loop
vertex 2.7173333168 0.941765725613 0.0
vertex 2.69485569 0.887499988079 0.5
vertex 2.7173333168 0.941765725613 0.5
endloop
endfacet
facet normal -0.991444885731 0.130526185036 0.0
outer loop
vertex 2.72499990463 1.0 0.0
vertex 2.7173333168 0.941765725613 0.5
vertex 2.72499990463 1.0 0.5
endloop
endfacet
facet normal -0.991444885731 -0.130526185036 0.0
outer loop
vertex 2.7173333168 1.05823433399 0.0
vertex 2.72499990463 1.0 0.0
vertex 2.72499990463 1.0 0.5
endloop
endfacet
facet normal -0.608761429787 -0.793353319168 0.0
outer loop
vertex 2.65909910202 1.15909898281 0.0
vertex 2.65909910202 1.15909898281 0.5
vertex 2.61249995232 1.19485569 0.0
endloop
endfacet
facet normal -0.382683426142 -0.923879504204 -3.39891160676e-16
outer loop
vertex 2.61249995232 1.19485569 0.0
vertex 2.61249995232 1.19485569 0.5
vertex 2.55823421478 1.2173333168 0.0
endloop
endfacet
facet normal -0.130526185036 -0.991444885731 0.0
outer loop
vertex 2.55823421478 1.2173333168 0.0
vertex 2.55823421478 1.2173333168 0.5
vertex 2.5 1.22500002384 0.0
endloop
endfacet
facet normal 0.130526185036 -0.991444885731 0.0
outer loop
vertex 2.5 1.22500002384 0.0
vertex 2.5 1.22500002384 0.5
vertex 2.44176578522 1.2173333168 0.0
endloop
endfacet
facet normal 0.382683426142 -0.923879504204 3.39891160676e-16
outer loop
vertex 2.44176578522 1.2173333168 0.0
vertex 2.44176578522 1.2173333168 0.5
vertex 2.38750004768 1.19485569 0.0
endloop
endfacet
facet normal 0.608761429787 -0.793353319168 5.40688764682e-16
outer loop
vertex 2.38750004768 1.19485569 0.0
vertex 2.38750004768 1.19485569 0.5
vertex 2.34090089798 1.15909898281 0.0
endloop
endfacet
facet normal 0.793353319168 -0.608761429787 0.0
outer loop
vertex 2.34090089798 1.15909898281 0.0
vertex 2.34090089798 1.15909898281 0.5
vertex 2.30514431 1.11249995232 0.0
endloop
endfacet
facet normal 0.923879504204 -0.382683426142 0.0
outer loop
vertex 2.30514431 1.11249995232 0.0
vertex 2.30514431 1.11249995232 0.5
vertex 2.2826666832 1.05823433399 0.0
endloop
endfacet
facet normal 0.991444885731 -0.130526185036 -5.79652703772e-17
outer loop
vertex 2.2826666832 1.05823433399 0.0
vertex 2.2826666832 1.05823433399 0.5
vertex 2.27500009537 1.0 0.0
endloop
endfacet
facet normal 0.991444885731 0.130526185036 -0.0
outer loop
vertex 2.27500009537 1.0 0.0
vertex 2.27500009537 1.0 0.5
vertex 2.2826666832 0.941765725613 0.0
endloop
endfacet
facet normal 0.923879504204 0.382683426142 8.4972790169e-17
outer loop
vertex 2.2826666832 0.941765725613 0.0
vertex 2.2826666832 0.941765725613 0.5
vertex 2.30514431 0.887499988079 0.0
endloop
endfacet
facet normal 0.793353319168 0.608761429787 1.35172191171e-16
outer loop
vertex 2.30514431 0.887499988079 0.0
vertex 2.30514431 0.887499988079 0.5
vertex 2.34090089798 0.840900957584 0.0
endloop
endfacet
facet normal 0.608761429787 0.793353319168 1.76159824321e-16
outer loop
vertex 2.34090089798 0.840900957584 0.0
vertex 2.34090089798 0.840900957584 0.5
vertex 2.38750004768 0.805144309998 0.0
endloop
endfacet
facet normal 0.382683426142 0.923879504204 -1.34748701167e-16
outer loop
vertex 2.38750004768 0.805144309998 0.0
vertex 2.38750004768 0.805144309998 0.5
vertex 2.44176578522 0.782666683197 0.0
endloop
endfacet
facet normal 0.130526185036 0.991444885731 -1.15930540754e-16
outer loop
vertex 2.44176578522 0.782666683197 0.0
vertex 2.44176578522 0.782666683197 0.5
vertex 2.5 0.774999976158 0.0
endloop
endfacet
facet normal -0.130526185036 0.991444885731 0.0
outer loop
vertex 2.5 0.774999976158 0.0
vertex 2.5 0.774999976158 0.5
vertex 2.55823421478 0.782666683197 0.0
endloop
endfacet
facet normal -0.382683426142 0.923879504204 0.0
outer loop
vertex 2.55823421478 0.782666683197 0.0
vertex 2.55823421478 0.782666683197 0.5
vertex 2.61249995232 0.805144309998 0.0
endloop
endfacet
facet normal -0.608761429787 0.793353319168 5.40688764682e-16
outer loop
vertex 2.61249995232 0.805144309998 0.0
vertex 2.61249995232 0.805144309998 0.5
vertex 2.65909910202 0.840900957584 0.0
endloop
endfacet
facet normal -0.793353319168 0.608761429787 0.0
outer loop
vertex 2.65909910202 0.840900957584 0.0
vertex 2.65909910202 0.840900957584 0.5
vertex 2.69485569 0.887499988079 0.0
endloop
endfacet
facet normal -0.923879504204 0.382683426142 0.0
outer loop
vertex 2.69485569 0.887499988079 0.0
vertex 2.69485569 0.887499988079 0.5
vertex 2.7173333168 0.941765725613 0.0
endloop
endfacet
facet normal -0.991444885731 0.130526185036 0.0
outer loop
vertex 2.7173333168 0.941765725613 0.0
vertex 2.7173333168 0.941765725613 0.5
vertex 2.72499990463 1.0 0.0
endloop
endfacet
facet normal -0.991444885731 -0.130526185036 -0.0
outer loop
vertex 2.7173333168 3.05823421478 0.5
vertex 2.7173333168 3.05823421478 0.0
vertex 2.72499990463 3.0 0.5
endloop
endfacet
facet normal -0.923879504204 -0.382683426142 0.0
outer loop
vertex 2.7173333168 3.05823421478 0.5
vertex 2.69485569 3.11249995232 0.0
vertex 2.7173333168 3.05823421478 0.0
endloop
endfacet
facet normal -0.923879504204 -0.382683426142 -0.0
outer loop
vertex 2.7173333168 3.05823421478 0.5
vertex 2.69485569 3.11249995232 0.5
vertex 2.69485569 3.11249995232 0.0
endloop
endfacet
facet normal -0.793353319168 -0.608761429787 0.0
outer loop
vertex 2.69485569 3.11249995232 0.0
vertex 2.69485569 3.11249995232 0.5
vertex 2.65909910202 3.15909910202 0.0
endloop
endfacet
facet normal -0.793353319168 -0.608761429787 0.0
outer loop
vertex 2.65909910202 3.15909910202 0.0
vertex 2.69485569 3.11249995232 0.5
vertex 2.65909910202 3.15909910202 0.5
endloop
endfacet
facet normal -0.608761429787 -0.793353319168 -5.46376220346e-16
outer loop
vertex 2.61249995232 3.19485569 0.0
vertex 2.65909910202 3.15909910202 0.5
vertex 2.61249995232 3.19485569 0.5
endloop
endfacet
facet normal -0.382683426142 -0.923879504204 -3.39639274253e-16
outer loop
vertex 2.55823421478 3.2173333168 0.0
vertex 2.61249995232 3.19485569 0.5
vertex 2.55823421478 3.2173333168 0.5
endloop
endfacet
facet normal -0.130526185036 -0.991444885731 0.0
outer loop
vertex 2.5 3.22499990463 0.0
vertex 2.55823421478 3.2173333168 0.5
vertex 2.5 3.22499990463 0.5
endloop
endfacet
facet normal 0.130526185036 -0.991444885731 1.1444366706e-16
outer loop
vertex 2.44176578522 3.2173333168 0.0
vertex 2.5 3.22499990463 0.5
vertex 2.44176578522 3.2173333168 0.5
endloop
endfacet
facet normal 0.382683426142 -0.923879504204 0.0
outer loop
vertex 2.38750004768 3.19485569 0.0
vertex 2.44176578522 3.2173333168 0.5
vertex 2.38750004768 3.19485569 0.5
endloop
endfacet
facet normal 0.608761429787 -0.793353319168 0.0
outer loop
vertex 2.34090089798 3.15909910202 0.0
vertex 2.38750004768 3.19485569 0.5
vertex 2.34090089798 3.15909910202 0.5
endloop
endfacet
facet normal 0.793353319168 -0.608761429787 0.0
outer loop
vertex 2.30514431 3.11249995232 0.0
vertex 2.34090089798 3.15909910202 0.5
vertex 2.30514431 3.11249995232 0.5
endloop
endfacet
facet normal 0.923879504204 -0.382683426142 -3.39639274253e-16
outer loop
vertex 2.2826666832 3.05823421478 0.0
vertex 2.30514431 3.11249995232 0.5
vertex 2.2826666832 3.05823421478 0.5
endloop
endfacet
facet normal 0.991444885731 -0.130526185036 0.0
outer loop
vertex 2.27500009537 3.0 0.0
vertex 2.2826666832 3.05823421478 0.5
vertex 2.27500009537 3.0 0.5
endloop
endfacet
facet normal 0.991444885731 0.130526185036 1.1444366706e-16
outer loop
vertex 2.2826666832 2.94176578522 0.0
vertex 2.27500009537 3.0 0.5
vertex 2.2826666832 2.94176578522 0.5
endloop
endfacet
facet normal 0.923879504204 0.382683426142 0.0
outer loop
vertex 2.30514431 2.88750004768 0.0
vertex 2.2826666832 2.94176578522 0.5
vertex 2.30514431 2.88750004768 0.5
endloop
endfacet
facet normal 0.793353319168 0.608761429787 0.0
outer loop
vertex 2.34090089798 2.84090089798 0.0
vertex 2.30514431 2.88750004768 0.5
vertex 2.34090089798 2.84090089798 0.5
endloop
endfacet
facet normal 0.608761429787 0.793353319168 0.0
outer loop
vertex 2.38750004768 2.80514431 0.0
vertex 2.34090089798 2.84090089798 0.5
vertex 2.38750004768 2.80514431 0.5
endloop
endfacet
facet normal 0.382683426142 0.923879504204 -3.39639274253e-16
outer loop
vertex 2.44176578522 2.7826666832 0.0
vertex 2.38750004768 2.80514431 0.5
vertex 2.44176578522 2.7826666832 0.5
endloop
endfacet
facet normal 0.130526185036 0.991444885731 0.0
outer loop
vertex 2.5 2.77500009537 0.0
vertex 2.44176578522 2.7826666832 0.5
vertex 2.5 2.77500009537 0.5
endloop
endfacet
facet normal -0.130526185036 0.991444885731 1.1444366706e-16
outer loop
vertex 2.55823421478 2.7826666832 0.0
vertex 2.5 2.77500009537 0.5
vertex 2.55823421478 2.7826666832 0.5
endloop
endfacet
facet normal -0.382683426142 0.923879504204 3.39639274253e-16
outer loop
vertex 2.61249995232 2.80514431 0.0
vertex 2.55823421478 2.7826666832 0.5
vertex 2.61249995232 2.80514431 0.5
endloop
endfacet
facet normal -0.608761429787 0.793353319168 0.0
outer loop
vertex 2.65909910202 2.84090089798 0.0
vertex 2.61249995232 2.80514431 0.5
vertex 2.65909910202 2.84090089798 0.5
endloop
endfacet
facet normal -0.793353319168 0.608761429787 0.0
outer loop
vertex 2.69485569 2.88750004768 0.0
vertex 2.65909910202 2.84090089798 0.5
vertex 2.69485569 2.88750004768 0.5
endloop
endfacet
facet normal -0.923879504204 0.382683426142 0.0
outer loop
vertex 2.7173333168 2.94176578522 0.0
vertex 2.69485569 2.88750004768 0.5
vertex 2.7173333168 2.94176578522 0.5
endloop
endfacet
facet normal -0.991444885731 0.130526185036 0.0
outer loop
vertex 2.72499990463 3.0 0.0
vertex 2.7173333168 2.94176578522 0.5
vertex 2.72499990463 3.0 0.5
endloop
endfacet
facet normal -0.991444885731 -0.130526185036 0.0
outer loop
vertex 2.7173333168 3.05823421478 0.0
vertex 2.72499990463 3.0 0.0
vertex 2.72499990463 3.0 0.5
endloop
endfacet
facet normal -0.608761429787 -0.793353319168 0.0
outer loop
vertex 2.65909910202 3.15909910202 0.0
vertex 2.65909910202 3.15909910202 0.5
vertex 2.61249995232 3.19485569 0.0
endloop
endfacet
facet normal -0.382683426142 -0.923879504204 -3.39891160676e-16
outer loop
vertex 2.61249995232 3.19485569 0.0
vertex 2.61249995232 3.19485569 0.5
vertex 2.55823421478 3.2173333168 0.0
endloop
endfacet
facet normal -0.130526185036 -0.991444885731 -1.15930540754e-16
outer loop
vertex 2.55823421478 3.2173333168 0.0
vertex 2.55823421478 3.2173333168 0.5
vertex 2.5 3.22499990463 0.0
endloop
endfacet
facet normal 0.130526185036 -0.991444885731 0.0
outer loop
vertex 2.5 3.22499990463 0.0
vertex 2.5 3.22499990463 0.5
vertex 2.44176578522 3.2173333168 0.0
endloop
endfacet
facet normal 0.382683426142 -0.923879504204 3.39891160676e-16
outer loop
vertex 2.44176578522 3.2173333168 0.0
vertex 2.44176578522 3.2173333168 0.5
vertex 2.38750004768 3.19485569 0.0
endloop
endfacet
facet normal 0.608761429787 -0.793353319168 0.0
outer loop
vertex 2.38750004768 3.19485569 0.0
vertex 2.38750004768 3.19485569 0.5
vertex 2.34090089798 3.15909910202 0.0
endloop
endfacet
facet normal 0.793353319168 -0.608761429787 0.0
outer loop
vertex 2.34090089798 3.15909910202 0.0
vertex 2.34090089798 3.15909910202 0.5
vertex 2.30514431 3.11249995232 0.0
endloop
endfacet
facet normal 0.923879504204 -0.382683426142 0.0
outer loop
vertex 2.30514431 3.11249995232 0.0
vertex 2.30514431 3.11249995232 0.5
vertex 2.2826666832 3.05823421478 0.0
endloop
endfacet
facet normal 0.991444885731 -0.130526185036 -1.15930540754e-16
outer loop
vertex 2.2826666832 3.05823421478 0.0
vertex 2.2826666832 3.05823421478 0.5
vertex 2.27500009537 3.0 0.0
endloop
endfacet
facet normal 0.991444885731 0.130526185036 -0.0
outer loop
vertex 2.27500009537 3.0 0.0
vertex 2.27500009537 3.0 0.5
vertex 2.2826666832 2.94176578522 0.0
endloop
endfacet
facet normal 0.923879504204 0.382683426142 3.39891160676e-16
outer loop
vertex 2.2826666832 2.94176578522 0.0
vertex 2.2826666832 2.94176578522 0.5
vertex 2.30514431 2.88750004768 0.0
endloop
endfacet
facet normal 0.793353319168 0.608761429787 -0.0
outer loop
vertex 2.30514431 2.88750004768 0.0
vertex 2.30514431 2.88750004768 0.5
vertex 2.34090089798 2.84090089798 0.0
endloop
endfacet
facet normal 0.608761429787 0.793353319168 -0.0
outer loop
vertex 2.34090089798 2.84090089798 0.0
vertex 2.34090089798 2.84090089798 0.5
vertex 2.38750004768 2.80514431 0.0
endloop
endfacet
facet normal 0.382683426142 0.923879504204 -0.0
outer loop
vertex 2.38750004768 2.80514431 0.0
vertex 2.38750004768 2.80514431 0.5
vertex 2.44176578522 2.7826666832 0.0
endloop
endfacet
facet normal 0.130526185036 0.991444885731 -1.15930540754e-16
outer loop
vertex 2.44176578522 2.7826666832 0.0
vertex 2.44176578522 2.7826666832 0.5
vertex 2.5 2.77500009537 0.0
endloop
endfacet
facet normal -0.130526185036 0.991444885731 0.0
outer loop
vertex 2.5 2.77500009537 0.0
vertex 2.5 2.77500009537 0.5
vertex 2.55823421478 2.7826666832 0.0
endloop
endfacet
facet normal -0.382683426142 0.923879504204 3.39891160676e-16
outer loop
vertex 2.55823421478 2.7826666832 0.0
vertex 2.55823421478 2.7826666832 0.5
vertex 2.61249995232 2.80514431 0.0
endloop
endfacet
facet normal -0.608761429787 0.793353319168 5.40688764682e-16
outer loop
vertex 2.61249995232 2.80514431 0.0
vertex 2.61249995232 2.80514431 0.5
vertex 2.65909910202 2.84090089798 0.0
endloop
endfacet
facet normal -0.793353319168 0.608761429787 0.0
outer loop
vertex 2.65909910202 2.84090089798 0.0
vertex 2.65909910202 2.84090089798 0.5
vertex 2.69485569 2.88750004768 0.0
endloop
endfacet
facet normal -0.923879504204 0.382683426142 0.0
outer loop
vertex 2.69485569 2.88750004768 0.0
vertex 2.69485569 2.88750004768 0.5
vertex 2.7173333168 2.94176578522 0.0
endloop
endfacet
facet normal -0.991444885731 0.130526185036 0.0
outer loop
vertex 2.7173333168 2.94176578522 0.0
vertex 2.7173333168 2.94176578522 0.5
vertex 2.72499990463 3.0 0.0
endloop
endfacet
facet normal -1.0 0.0 0.0
outer loop
vertex 0.0 4.0 0.0
vertex 0.0 0.0 0.0
vertex 0.0 4.0 0.5
endloop
endfacet
facet normal -1.0 -0.0 0.0
outer loop
vertex 0.0 4.0 0.5
vertex 0.0 0.0 0.0
vertex 0.0 0.0 0.5
endloop
endfacet
facet normal 0.0 1.0 -0.0
outer loop
vertex 12.0 4.0 0.0
vertex 0.0 4.0 0.0
vertex 12.0 4.0 0.5
endloop
endfacet
facet normal 0.0 1.0 -0.0
outer loop
vertex 12.0 4.0 0.5
vertex 0.0 4.0 0.0
vertex 0.0 4.0 0.5
endloop
endfacet
facet normal 1.0 0.0 -0.0
outer loop
vertex 12.0 0.0 0.0
vertex 12.0 4.0 0.0
vertex 12.0 0.0 0.5
endloop
endfacet
facet normal 1.0 -0.0 0.0
outer loop
vertex 12.0 0.0 0.5
vertex 12.0 4.0 0.0
vertex 12.0 4.0 0.5
endloop
endfacet
facet normal 0.0 -1.0 0.0
outer loop
vertex 0.0 0.0 0.0
vertex 12.0 0.0 0.0
vertex 0.0 0.0 0.5
endloop
endfacet
facet normal 0.0 -1.0 0.0
outer loop
vertex 0.0 0.0 0.5
vertex 12.0 0.0 0.0
vertex 12.0 0.0 0.5
endloop
endfacet
facet normal 0.0 0.0 1.0
outer loop
vertex 10.08223629 2.37809348106 0.5
vertex 5.11250019073 2.80514431 0.5
vertex 10.0749998093 2.29999995232 0.5
endloop
endfacet
facet normal 0.0 0.0 1.0
outer loop
vertex 10.08223629 2.37809348106 0.5
vertex 5.15909910202 2.84090089798 0.5
vertex 5.11250019073 2.80514431 0.5
endloop
endfacet
facet normal 0.0 -0.0 1.0
outer loop
vertex 10.08223629 2.37809348106 0.5
vertex 10.1036996841 2.45352768898 0.5
vertex 5.15909910202 2.84090089798 0.5
endloop
endfacet
facet normal -0.0 0.0 1.0
outer loop
vertex 5.15909910202 2.84090089798 0.5
vertex 10.1036996841 2.45352768898 0.5
vertex 10.1386575699 2.52373361588 0.5
endloop
endfacet
facet normal -0.0 0.0 1.0
outer loop
vertex 5.19485569 2.88750004768 0.5
vertex 10.1386575699 2.52373361588 0.5
vertex 10.185921669 2.58632063866 0.5
endloop
endfacet
facet normal -0.0 0.0 1.0
outer loop
vertex 5.2173333168 2.94176578522 0.5
vertex 10.185921669 2.58632063866 0.5
vertex 10.2438802719 2.63915729523 0.5
endloop
endfacet
facet normal -0.0 -0.0 1.0
outer loop
vertex 5.22499990463 3.0 0.5
vertex 10.2438802719 2.63915729523 0.5
vertex 5.2173333168 3.05823421478 0.5
endloop
endfacet
facet normal 0.0 0.0 1.0
outer loop
vertex 5.22499990463 3.0 0.5
vertex 5.2173333168 2.94176578522 0.5
vertex 10.2438802719 2.63915729523 0.5
endloop
endfacet
facet normal -0.0 -0.0 1.0
outer loop
vertex 5.15909910202 2.84090089798 0.5
vertex 10.1386575699 2.52373361588 0.5
vertex 5.19485569 2.88750004768 0.5
endloop
endfacet
facet normal -0.0 -0.0 1.0
outer loop
vertex 5.19485569 2.88750004768 0.5
vertex 10.185921669 2.58632063866 0.5
vertex 5.2173333168 2.94176578522 0.5
endloop
endfacet
facet normal 0.0 -0.0 1.0
outer loop
vertex 10.2438802719 2.63915729523 0.5
vertex 10.3105611801 2.68044447899 0.5
vertex 5.2173333168 3.05823421478 0.5
endloop
endfacet
facet normal -0.0 -0.0 1.0
outer loop
vertex 5.2173333168 3.05823421478 0.5
vertex 10.3105611801 2.68044447899 0.5
vertex 5.19485569 3.11249995232 0.5
endloop
endfacet
facet normal -0.0 0.0 1.0
outer loop
vertex 5.19485569 3.11249995232 0.5
vertex 10.3105611801 2.68044447899 0.5
vertex 10.3836936951 2.70877599716 0.5
endloop
endfacet
facet normal -0.0 -0.0 1.0
outer loop
vertex 5.15909910202 3.15909910202 0.5
vertex 10.3836936951 2.70877599716 0.5
vertex 5.11250019073 3.19485569 0.5
endloop
endfacet
facet normal 0.0 0.0 1.0
outer loop
vertex 5.15909910202 3.15909910202 0.5
vertex 5.19485569 3.11249995232 0.5
vertex 10.3836936951 2.70877599716 0.5
endloop
endfacet
facet normal -0.0 0.0 1.0
outer loop
vertex 5.11250019073 3.19485569 0.5
vertex 10.3836936951 2.70877599716 0.5
vertex 12.0 4.0 0.5
endloop
endfacet
facet normal 0.0 -0.0 1.0
outer loop
vertex 5.05823421478 3.2173333168 0.5
vertex 12.0 4.0 0.5
vertex 5.0 3.22499990463 0.5
endloop
endfacet
facet normal -0.0 0.0 1.0
outer loop
vertex 5.05823421478 3.2173333168 0.5
vertex 5.11250019073 3.19485569 0.5
vertex 12.0 4.0 0.5
endloop
endfacet
facet normal 0.0 0.0 1.0
outer loop
vertex 10.3836936951 2.70877599716 0.5
vertex 10.4607858658 2.72318696976 0.5
vertex 12.0 4.0 0.5
endloop
endfacet
facet normal 0.0 0.0 1.0
outer loop
vertex 12.0 4.0 0.5
vertex 10.4607858658 2.72318696976 0.5
vertex 10.5392141342 2.72318696976 0.5
endloop
endfacet
facet normal 0.0 -0.0 1.0
outer loop
vertex 10.6163063049 2.70877599716 0.5
vertex 12.0 4.0 0.5
vertex 10.5392141342 2.72318696976 0.5
endloop
endfacet
facet normal -0.0 0.0 1.0
outer loop
vertex 10.6163063049 2.70877599716 0.5
vertex 10.6894388199 2.68044447899 0.5
vertex 12.0 4.0 0.5
endloop
endfacet
facet normal 0.0 0.0 1.0
outer loop
vertex 12.0 4.0 0.5
vertex 10.6894388199 2.68044447899 0.5
vertex 10.7561197281 2.63915729523 0.5
endloop
endfacet
facet normal 0.0 -0.0 1.0
outer loop
vertex 10.814078331 2.58632063866 0.5
vertex 12.0 4.0 0.5
vertex 10.7561197281 2.63915729523 0.5
endloop
endfacet
facet normal -0.0 0.0 1.0
outer loop
vertex 10.814078331 2.58632063866 0.5
vertex 10.8613424301 2.52373361588 0.5
vertex 12.0 4.0 0.5
endloop
endfacet
facet normal 0.0 0.0 1.0
outer loop
vertex 12.0 4.0 0.5
vertex 10.8613424301 2.52373361588 0.5
vertex 10.8963003159 2.45352768898 0.5
endloop
endfacet
facet normal 0.0 -0.0 1.0
outer loop
vertex 10.91776371 2.37809348106 0.5
vertex 12.0 4.0 0.5
vertex 10.8963003159 2.45352768898 0.5
endloop
endfacet
facet normal -0.0 0.0 1.0
outer loop
vertex 10.91776371 2.37809348106 0.5
vertex 10.9250001907 2.29999995232 0.5
vertex 12.0 4.0 0.5
endloop
endfacet
facet normal 0.0 0.0 1.0
outer loop
vertex 12.0 4.0 0.5
vertex 10.9250001907 2.29999995232 0.5
vertex 12.0 0.0 0.5
endloop
endfacet
facet normal 0.0 0.0 1.0
outer loop
vertex 12.0 0.0 0.5
vertex 10.9250001907 2.29999995232 0.5
vertex 10.9250001907 1.70000004768 0.5
endloop
endfacet
facet normal -0.0 -0.0 1.0
outer loop
vertex 10.91776371 1.62190639973 0.5
vertex 12.0 0.0 0.5
vertex 10.9250001907 1.70000004768 0.5
endloop
endfacet
facet normal 0.0 0.0 1.0
outer loop
vertex 10.91776371 1.62190639973 0.5
vertex 10.8963003159 1.54647231102 0.5
vertex 12.0 0.0 0.5
endloop
endfacet
facet normal 0.0 0.0 1.0
outer loop
vertex 12.0 0.0 0.5
vertex 10.8963003159 1.54647231102 0.5
vertex 10.8613424301 1.47626638412 0.5
endloop
endfacet
facet normal -0.0 -0.0 1.0
outer loop
vertex 10.814078331 1.41367936134 0.5
vertex 12.0 0.0 0.5
vertex 10.8613424301 1.47626638412 0.5
endloop
endfacet
facet normal 0.0 0.0 1.0
outer loop
vertex 10.814078331 1.41367936134 0.5
vertex 10.7561197281 1.36084270477 0.5
vertex 12.0 0.0 0.5
endloop
endfacet
facet normal 0.0 0.0 1.0
outer loop
vertex 12.0 0.0 0.5
vertex 10.7561197281 1.36084270477 0.5
vertex 10.6894388199 1.31955564022 0.5
endloop
endfacet
facet normal -0.0 -0.0 1.0
outer loop
vertex 10.6163063049 1.29122412205 0.5
vertex 12.0 0.0 0.5
vertex 10.6894388199 1.31955564022 0.5
endloop
endfacet
facet normal 0.0 0.0 1.0
outer loop
vertex 10.6163063049 1.29122412205 0.5
vertex 10.5392141342 1.27681303024 0.5
vertex 12.0 0.0 0.5
endloop
endfacet
facet normal 0.0 0.0 1.0
outer loop
vertex 12.0 0.0 0.5
vertex 10.5392141342 1.27681303024 0.5
vertex 10.4607858658 1.27681303024 0.5
endloop
endfacet
facet normal -0.0 -0.0 1.0
outer loop
vertex 10.3836936951 1.29122412205 0.5
vertex 12.0 0.0 0.5
vertex 10.4607858658 1.27681303024 0.5
endloop
endfacet
facet normal 0.0 0.0 1.0
outer loop
vertex 10.3836936951 1.29122412205 0.5
vertex 5.11250019073 0.805144309998 0.5
vertex 12.0 0.0 0.5
endloop
endfacet
facet normal 0.0 0.0 1.0
outer loop
vertex 10.3836936951 1.29122412205 0.5
vertex 5.15909910202 0.840900957584 0.5
vertex 5.11250019073 0.805144309998 0.5
endloop
endfacet
facet normal 0.0 0.0 1.0
outer loop
vertex 10.3836936951 1.29122412205 0.5
vertex 5.19485569 0.887499988079 0.5
vertex 5.15909910202 0.840900957584 0.5
endloop
endfacet
facet normal 0.0 0.0 1.0
outer loop
vertex 10.3836936951 1.29122412205 0.5
vertex 10.3105611801 1.31955564022 0.5
vertex 5.19485569 0.887499988079 0.5
endloop
endfacet
facet normal 0.0 -0.0 1.0
outer loop
vertex 5.19485569 0.887499988079 0.5
vertex 10.3105611801 1.31955564022 0.5
vertex 5.2173333168 0.941765725613 0.5
endloop
endfacet
facet normal 0.0 -0.0 1.0
outer loop
vertex 5.2173333168 0.941765725613 0.5
vertex 10.3105611801 1.31955564022 0.5
vertex 10.2438802719 1.36084270477 0.5
endloop
endfacet
facet normal 0.0 -0.0 1.0
outer loop
vertex 5.22499990463 1.0 0.5
vertex 10.2438802719 1.36084270477 0.5
vertex 5.2173333168 1.05823433399 0.5
endloop
endfacet
facet normal -0.0 0.0 1.0
outer loop
vertex 5.22499990463 1.0 0.5
vertex 5.2173333168 0.941765725613 0.5
vertex 10.2438802719 1.36084270477 0.5
endloop
endfacet
facet normal 0.0 0.0 1.0
outer loop
vertex 10.2438802719 1.36084270477 0.5
vertex 10.185921669 1.41367936134 0.5
vertex 5.2173333168 1.05823433399 0.5
endloop
endfacet
facet normal 0.0 -0.0 1.0
outer loop
vertex 5.2173333168 1.05823433399 0.5
vertex 10.185921669 1.41367936134 0.5
vertex 5.19485569 1.11249995232 0.5
endloop
endfacet
facet normal 0.0 -0.0 1.0
outer loop
vertex 5.19485569 1.11249995232 0.5
vertex 10.185921669 1.41367936134 0.5
vertex 10.1386575699 1.47626638412 0.5
endloop
endfacet
facet normal 0.0 -0.0 1.0
outer loop
vertex 5.15909910202 1.15909898281 0.5
vertex 10.1386575699 1.47626638412 0.5
vertex 10.1036996841 1.54647231102 0.5
endloop
endfacet
facet normal -0.0 0.0 1.0
outer loop
vertex 10.08223629 1.62190639973 0.5
vertex 5.15909910202 1.15909898281 0.5
vertex 10.1036996841 1.54647231102 0.5
endloop
endfacet
facet normal 0.0 0.0 1.0
outer loop
vertex 10.08223629 1.62190639973 0.5
vertex 5.11250019073 1.19485569 0.5
vertex 5.15909910202 1.15909898281 0.5
endloop
endfacet
facet normal 0.0 0.0 1.0
outer loop
vertex 10.08223629 1.62190639973 0.5
vertex 10.0749998093 1.70000004768 0.5
vertex 5.11250019073 1.19485569 0.5
endloop
endfacet
facet normal 0.0 -0.0 1.0
outer loop
vertex 5.11250019073 1.19485569 0.5
vertex 10.0749998093 1.70000004768 0.5
vertex 5.05823421478 1.2173333168 0.5
endloop
endfacet
facet normal 0.0 -0.0 1.0
outer loop
vertex 5.05823421478 1.2173333168 0.5
vertex 10.0749998093 1.70000004768 0.5
vertex 5.05823421478 2.7826666832 0.5
endloop
endfacet
facet normal 0.0 -0.0 1.0
outer loop
vertex 5.0 1.22500002384 0.5
vertex 5.05823421478 2.7826666832 0.5
vertex 5.0 2.77500009537 0.5
endloop
endfacet
facet normal -0.0 -0.0 1.0
outer loop
vertex 4.94176578522 2.7826666832 0.5
vertex 5.0 1.22500002384 0.5
vertex 5.0 2.77500009537 0.5
endloop
endfacet
facet normal -0.0 0.0 1.0
outer loop
vertex 4.94176578522 2.7826666832 0.5
vertex 4.94176578522 1.2173333168 0.5
vertex 5.0 1.22500002384 0.5
endloop
endfacet
facet normal 0.0 0.0 1.0
outer loop
vertex 4.94176578522 2.7826666832 0.5
vertex 2.55823421478 2.7826666832 0.5
vertex 4.94176578522 1.2173333168 0.5
endloop
endfacet
facet normal 0.0 0.0 1.0
outer loop
vertex 4.94176578522 2.7826666832 0.5
vertex 2.61249995232 2.80514431 0.5
vertex 2.55823421478 2.7826666832 0.5
endloop
endfacet
facet normal 0.0 0.0 1.0
outer loop
vertex 4.94176578522 2.7826666832 0.5
vertex 4.88749980927 2.80514431 0.5
vertex 2.61249995232 2.80514431 0.5
endloop
endfacet
facet normal 0.0 -0.0 1.0
outer loop
vertex 2.61249995232 2.80514431 0.5
vertex 4.88749980927 2.80514431 0.5
vertex 2.65909910202 2.84090089798 0.5
endloop
endfacet
facet normal -0.0 -0.0 1.0
outer loop
vertex 2.65909910202 2.84090089798 0.5
vertex 4.88749980927 2.80514431 0.5
vertex 4.84090089798 2.84090089798 0.5
endloop
endfacet
facet normal -0.0 -0.0 1.0
outer loop
vertex 2.69485569 2.88750004768 0.5
vertex 4.84090089798 2.84090089798 0.5
vertex 4.80514431 2.88750004768 0.5
endloop
endfacet
facet normal -0.0 -0.0 1.0
outer loop
vertex 2.7173333168 2.94176578522 0.5
vertex 4.80514431 2.88750004768 0.5
vertex 4.7826666832 2.94176578522 0.5
endloop
endfacet
facet normal -0.0 -0.0 1.0
outer loop
vertex 2.72499990463 3.0 0.5
vertex 4.7826666832 2.94176578522 0.5
vertex 4.77500009537 3.0 0.5
endloop
endfacet
facet normal -0.0 0.0 1.0
outer loop
vertex 2.7173333168 3.05823421478 0.5
vertex 4.77500009537 3.0 0.5
vertex 4.7826666832 3.05823421478 0.5
endloop
endfacet
facet normal -0.0 0.0 1.0
outer loop
vertex 2.69485569 3.11249995232 0.5
vertex 4.7826666832 3.05823421478 0.5
vertex 4.80514431 3.11249995232 0.5
endloop
endfacet
facet normal -0.0 0.0 1.0
outer loop
vertex 2.65909910202 3.15909910202 0.5
vertex 4.80514431 3.11249995232 0.5
vertex 4.84090089798 3.15909910202 0.5
endloop
endfacet
facet normal -0.0 0.0 1.0
outer loop
vertex 2.61249995232 3.19485569 0.5
vertex 4.84090089798 3.15909910202 0.5
vertex 4.88749980927 3.19485569 0.5
endloop
endfacet
facet normal -0.0 0.0 1.0
outer loop
vertex 2.55823421478 3.2173333168 0.5
vertex 4.88749980927 3.19485569 0.5
vertex 4.94176578522 3.2173333168 0.5
endloop
endfacet
facet normal -0.0 0.0 1.0
outer loop
vertex 2.5 3.22499990463 0.5
vertex 4.94176578522 3.2173333168 0.5
vertex 5.0 3.22499990463 0.5
endloop
endfacet
facet normal -0.0 0.0 1.0
outer loop
vertex 0.0 4.0 0.5
vertex 5.0 3.22499990463 0.5
vertex 12.0 4.0 0.5
endloop
endfacet
facet normal -0.0 0.0 1.0
outer loop
vertex 0.0 4.0 0.5
vertex 2.5 3.22499990463 0.5
vertex 5.0 3.22499990463 0.5
endloop
endfacet
facet normal -0.0 0.0 1.0
outer loop
vertex 0.0 4.0 0.5
vertex 2.44176578522 3.2173333168 0.5
vertex 2.5 3.22499990463 0.5
endloop
endfacet
facet normal -0.0 0.0 1.0
outer loop
vertex 0.0 4.0 0.5
vertex 2.38750004768 3.19485569 0.5
vertex 2.44176578522 3.2173333168 0.5
endloop
endfacet
facet normal -0.0 0.0 1.0
outer loop
vertex 0.0 4.0 0.5
vertex 2.34090089798 3.15909910202 0.5
vertex 2.38750004768 3.19485569 0.5
endloop
endfacet
facet normal -0.0 0.0 1.0
outer loop
vertex 0.0 4.0 0.5
vertex 2.30514431 3.11249995232 0.5
vertex 2.34090089798 3.15909910202 0.5
endloop
endfacet
facet normal -0.0 0.0 1.0
outer loop
vertex 0.0 4.0 0.5
vertex 2.2826666832 3.05823421478 0.5
vertex 2.30514431 3.11249995232 0.5
endloop
endfacet
facet normal -0.0 0.0 1.0
outer loop
vertex 0.0 4.0 0.5
vertex 2.27500009537 3.0 0.5
vertex 2.2826666832 3.05823421478 0.5
endloop
endfacet
facet normal -0.0 -0.0 1.0
outer loop
vertex 0.0 4.0 0.5
vertex 2.2826666832 2.94176578522 0.5
vertex 2.27500009537 3.0 0.5
endloop
endfacet
facet normal -0.0 -0.0 1.0
outer loop
vertex 0.0 4.0 0.5
vertex 2.30514431 2.88750004768 0.5
vertex 2.2826666832 2.94176578522 0.5
endloop
endfacet
facet normal -0.0 -0.0 1.0
outer loop
vertex 0.0 4.0 0.5
vertex 2.34090089798 2.84090089798 0.5
vertex 2.30514431 2.88750004768 0.5
endloop
endfacet
facet normal -0.0 0.0 1.0
outer loop
vertex 0.0 4.0 0.5
vertex 0.0 0.0 0.5
vertex 2.34090089798 2.84090089798 0.5
endloop
endfacet
facet normal -0.0 0.0 1.0
outer loop
vertex 2.34090089798 2.84090089798 0.5
vertex 0.0 0.0 0.5
vertex 2.34090089798 1.15909898281 0.5
endloop
endfacet
facet normal 0.0 0.0 1.0
outer loop
vertex 2.38750004768 1.19485569 0.5
vertex 2.34090089798 2.84090089798 0.5
vertex 2.34090089798 1.15909898281 0.5
endloop
endfacet
facet normal 0.0 -0.0 1.0
outer loop
vertex 2.38750004768 1.19485569 0.5
vertex 2.38750004768 2.80514431 0.5
vertex 2.34090089798 2.84090089798 0.5
endloop
endfacet
facet normal 0.0 -0.0 1.0
outer loop
vertex 2.38750004768 1.19485569 0.5
vertex 2.44176578522 2.7826666832 0.5
vertex 2.38750004768 2.80514431 0.5
endloop
endfacet
facet normal 0.0 0.0 1.0
outer loop
vertex 2.38750004768 1.19485569 0.5
vertex 2.44176578522 1.2173333168 0.5
vertex 2.44176578522 2.7826666832 0.5
endloop
endfacet
facet normal -0.0 0.0 1.0
outer loop
vertex 2.44176578522 2.7826666832 0.5
vertex 2.44176578522 1.2173333168 0.5
vertex 2.5 2.77500009537 0.5
endloop
endfacet
facet normal -0.0 0.0 1.0
outer loop
vertex 2.5 2.77500009537 0.5
vertex 2.44176578522 1.2173333168 0.5
vertex 2.5 1.22500002384 0.5
endloop
endfacet
facet normal 0.0 0.0 1.0
outer loop
vertex 2.55823421478 1.2173333168 0.5
vertex 2.5 2.77500009537 0.5
vertex 2.5 1.22500002384 0.5
endloop
endfacet
facet normal 0.0 -0.0 1.0
outer loop
vertex 2.55823421478 1.2173333168 0.5
vertex 2.55823421478 2.7826666832 0.5
vertex 2.5 2.77500009537 0.5
endloop
endfacet
facet normal 0.0 -0.0 1.0
outer loop
vertex 2.55823421478 1.2173333168 0.5
vertex 4.94176578522 1.2173333168 0.5
vertex 2.55823421478 2.7826666832 0.5
endloop
endfacet
facet normal -0.0 0.0 1.0
outer loop
vertex 2.55823421478 1.2173333168 0.5
vertex 4.88749980927 1.19485569 0.5
vertex 4.94176578522 1.2173333168 0.5
endloop
endfacet
facet normal -0.0 0.0 1.0
outer loop
vertex 2.55823421478 1.2173333168 0.5
vertex 2.61249995232 1.19485569 0.5
vertex 4.88749980927 1.19485569 0.5
endloop
endfacet
facet normal 0.0 0.0 1.0
outer loop
vertex 4.88749980927 1.19485569 0.5
vertex 2.61249995232 1.19485569 0.5
vertex 4.84090089798 1.15909898281 0.5
endloop
endfacet
facet normal 0.0 0.0 1.0
outer loop
vertex 4.84090089798 1.15909898281 0.5
vertex 2.61249995232 1.19485569 0.5
vertex 2.65909910202 1.15909898281 0.5
endloop
endfacet
facet normal 0.0 0.0 1.0
outer loop
vertex 4.80514431 1.11249995232 0.5
vertex 2.65909910202 1.15909898281 0.5
vertex 2.69485569 1.11249995232 0.5
endloop
endfacet
facet normal 0.0 0.0 1.0
outer loop
vertex 4.7826666832 1.05823433399 0.5
vertex 2.69485569 1.11249995232 0.5
vertex 2.7173333168 1.05823433399 0.5
endloop
endfacet
facet normal 0.0 0.0 1.0
outer loop
vertex 4.77500009537 1.0 0.5
vertex 2.7173333168 1.05823433399 0.5
vertex 2.72499990463 1.0 0.5
endloop
endfacet
facet normal 0.0 0.0 1.0
outer loop
vertex 4.7826666832 0.941765725613 0.5
vertex 2.72499990463 1.0 0.5
vertex 2.7173333168 0.941765725613 0.5
endloop
endfacet
facet normal 0.0 0.0 1.0
outer loop
vertex 4.80514431 0.887499988079 0.5
vertex 2.7173333168 0.941765725613 0.5
vertex 2.69485569 0.887499988079 0.5
endloop
endfacet
facet normal 0.0 0.0 1.0
outer loop
vertex 4.84090089798 0.840900957584 0.5
vertex 2.69485569 0.887499988079 0.5
vertex 2.65909910202 0.840900957584 0.5
endloop
endfacet
facet normal 0.0 0.0 1.0
outer loop
vertex 4.88749980927 0.805144309998 0.5
vertex 2.65909910202 0.840900957584 0.5
vertex 2.61249995232 0.805144309998 0.5
endloop
endfacet
facet normal 0.0 0.0 1.0
outer loop
vertex 4.94176578522 0.782666683197 0.5
vertex 2.61249995232 0.805144309998 0.5
vertex 2.55823421478 0.782666683197 0.5
endloop
endfacet
facet normal 0.0 0.0 1.0
outer loop
vertex 5.0 0.774999976158 0.5
vertex 2.55823421478 0.782666683197 0.5
vertex 2.5 0.774999976158 0.5
endloop
endfacet
facet normal 0.0 -0.0 1.0
outer loop
vertex 0.0 0.0 0.5
vertex 2.5 0.774999976158 0.5
vertex 2.44176578522 0.782666683197 0.5
endloop
endfacet
facet normal -0.0 0.0 1.0
outer loop
vertex 2.38750004768 0.805144309998 0.5
vertex 0.0 0.0 0.5
vertex 2.44176578522 0.782666683197 0.5
endloop
endfacet
facet normal 0.0 0.0 1.0
outer loop
vertex 2.38750004768 0.805144309998 0.5
vertex 2.34090089798 0.840900957584 0.5
vertex 0.0 0.0 0.5
endloop
endfacet
facet normal 0.0 -0.0 1.0
outer loop
vertex 0.0 0.0 0.5
vertex 2.34090089798 0.840900957584 0.5
vertex 2.30514431 0.887499988079 0.5
endloop
endfacet
facet normal -0.0 0.0 1.0
outer loop
vertex 2.2826666832 0.941765725613 0.5
vertex 0.0 0.0 0.5
vertex 2.30514431 0.887499988079 0.5
endloop
endfacet
facet normal 0.0 0.0 1.0
outer loop
vertex 2.2826666832 0.941765725613 0.5
vertex 2.27500009537 1.0 0.5
vertex 0.0 0.0 0.5
endloop
endfacet
facet normal 0.0 0.0 1.0
outer loop
vertex 0.0 0.0 0.5
vertex 2.27500009537 1.0 0.5
vertex 2.2826666832 1.05823433399 0.5
endloop
endfacet
facet normal -0.0 0.0 1.0
outer loop
vertex 2.30514431 1.11249995232 0.5
vertex 0.0 0.0 0.5
vertex 2.2826666832 1.05823433399 0.5
endloop
endfacet
facet normal 0.0 -0.0 1.0
outer loop
vertex 2.30514431 1.11249995232 0.5
vertex 2.34090089798 1.15909898281 0.5
vertex 0.0 0.0 0.5
endloop
endfacet
facet normal 0.0 -0.0 1.0
outer loop
vertex 5.19485569 1.11249995232 0.5
vertex 10.1386575699 1.47626638412 0.5
vertex 5.15909910202 1.15909898281 0.5
endloop
endfacet
facet normal 0.0 0.0 1.0
outer loop
vertex 10.0749998093 1.70000004768 0.5
vertex 10.0749998093 2.29999995232 0.5
vertex 5.05823421478 2.7826666832 0.5
endloop
endfacet
facet normal -0.0 -0.0 1.0
outer loop
vertex 5.05823421478 2.7826666832 0.5
vertex 10.0749998093 2.29999995232 0.5
vertex 5.11250019073 2.80514431 0.5
endloop
endfacet
facet normal 0.0 0.0 1.0
outer loop
vertex 5.11250019073 0.805144309998 0.5
vertex 5.05823421478 0.782666683197 0.5
vertex 12.0 0.0 0.5
endloop
endfacet
facet normal 0.0 0.0 1.0
outer loop
vertex 12.0 0.0 0.5
vertex 5.05823421478 0.782666683197 0.5
vertex 5.0 0.774999976158 0.5
endloop
endfacet
facet normal 0.0 -0.0 1.0
outer loop
vertex 0.0 0.0 0.5
vertex 5.0 0.774999976158 0.5
vertex 2.5 0.774999976158 0.5
endloop
endfacet
facet normal 0.0 -0.0 1.0
outer loop
vertex 0.0 0.0 0.5
vertex 12.0 0.0 0.5
vertex 5.0 0.774999976158 0.5
endloop
endfacet
facet normal 0.0 0.0 1.0
outer loop
vertex 5.0 0.774999976158 0.5
vertex 4.94176578522 0.782666683197 0.5
vertex 2.55823421478 0.782666683197 0.5
endloop
endfacet
facet normal 0.0 0.0 1.0
outer loop
vertex 4.94176578522 0.782666683197 0.5
vertex 4.88749980927 0.805144309998 0.5
vertex 2.61249995232 0.805144309998 0.5
endloop
endfacet
facet normal 0.0 0.0 1.0
outer loop
vertex 4.88749980927 0.805144309998 0.5
vertex 4.84090089798 0.840900957584 0.5
vertex 2.65909910202 0.840900957584 0.5
endloop
endfacet
facet normal 0.0 0.0 1.0
outer loop
vertex 4.84090089798 0.840900957584 0.5
vertex 4.80514431 0.887499988079 0.5
vertex 2.69485569 0.887499988079 0.5
endloop
endfacet
facet normal 0.0 0.0 1.0
outer loop
vertex 4.80514431 0.887499988079 0.5
vertex 4.7826666832 0.941765725613 0.5
vertex 2.7173333168 0.941765725613 0.5
endloop
endfacet
facet normal 0.0 0.0 1.0
outer loop
vertex 4.7826666832 0.941765725613 0.5
vertex 4.77500009537 1.0 0.5
vertex 2.72499990463 1.0 0.5
endloop
endfacet
facet normal 0.0 -0.0 1.0
outer loop
vertex 4.77500009537 1.0 0.5
vertex 4.7826666832 1.05823433399 0.5
vertex 2.7173333168 1.05823433399 0.5
endloop
endfacet
facet normal 0.0 -0.0 1.0
outer loop
vertex 4.7826666832 1.05823433399 0.5
vertex 4.80514431 1.11249995232 0.5
vertex 2.69485569 1.11249995232 0.5
endloop
endfacet
facet normal 0.0 -0.0 1.0
outer loop
vertex 4.80514431 1.11249995232 0.5
vertex 4.84090089798 1.15909898281 0.5
vertex 2.65909910202 1.15909898281 0.5
endloop
endfacet
facet normal -0.0 -0.0 1.0
outer loop
vertex 5.0 1.22500002384 0.5
vertex 5.05823421478 1.2173333168 0.5
vertex 5.05823421478 2.7826666832 0.5
endloop
endfacet
facet normal 0.0 -0.0 1.0
outer loop
vertex 2.65909910202 2.84090089798 0.5
vertex 4.84090089798 2.84090089798 0.5
vertex 2.69485569 2.88750004768 0.5
endloop
endfacet
facet normal 0.0 -0.0 1.0
outer loop
vertex 2.69485569 2.88750004768 0.5
vertex 4.80514431 2.88750004768 0.5
vertex 2.7173333168 2.94176578522 0.5
endloop
endfacet
facet normal 0.0 -0.0 1.0
outer loop
vertex 2.7173333168 2.94176578522 0.5
vertex 4.7826666832 2.94176578522 0.5
vertex 2.72499990463 3.0 0.5
endloop
endfacet
facet normal 0.0 -0.0 1.0
outer loop
vertex 2.72499990463 3.0 0.5
vertex 4.77500009537 3.0 0.5
vertex 2.7173333168 3.05823421478 0.5
endloop
endfacet
facet normal 0.0 -0.0 1.0
outer loop
vertex 2.7173333168 3.05823421478 0.5
vertex 4.7826666832 3.05823421478 0.5
vertex 2.69485569 3.11249995232 0.5
endloop
endfacet
facet normal 0.0 -0.0 1.0
outer loop
vertex 2.69485569 3.11249995232 0.5
vertex 4.80514431 3.11249995232 0.5
vertex 2.65909910202 3.15909910202 0.5
endloop
endfacet
facet normal 0.0 -0.0 1.0
outer loop
vertex 2.65909910202 3.15909910202 0.5
vertex 4.84090089798 3.15909910202 0.5
vertex 2.61249995232 3.19485569 0.5
endloop
endfacet
facet normal 0.0 -0.0 1.0
outer loop
vertex 2.61249995232 3.19485569 0.5
vertex 4.88749980927 3.19485569 0.5
vertex 2.55823421478 3.2173333168 0.5
endloop
endfacet
facet normal 0.0 -0.0 1.0
outer loop
vertex 2.55823421478 3.2173333168 0.5
vertex 4.94176578522 3.2173333168 0.5
vertex 2.5 3.22499990463 0.5
endloop
endfacet
facet normal 0.0 -0.0 -1.0
outer loop
vertex 10.91776371 2.37809348106 0.0
vertex 12.0 4.0 0.0
vertex 10.9250001907 2.29999995232 0.0
endloop
endfacet
facet normal 0.0 0.0 -1.0
outer loop
vertex 10.91776371 2.37809348106 0.0
vertex 10.8963003159 2.45352768898 0.0
vertex 12.0 4.0 0.0
endloop
endfacet
facet normal -0.0 0.0 -1.0
outer loop
vertex 12.0 4.0 0.0
vertex 10.8963003159 2.45352768898 0.0
vertex 10.8613424301 2.52373361588 0.0
endloop
endfacet
facet normal 0.0 -0.0 -1.0
outer loop
vertex 10.814078331 2.58632063866 0.0
vertex 12.0 4.0 0.0
vertex 10.8613424301 2.52373361588 0.0
endloop
endfacet
facet normal 0.0 0.0 -1.0
outer loop
vertex 10.814078331 2.58632063866 0.0
vertex 10.7561197281 2.63915729523 0.0
vertex 12.0 4.0 0.0
endloop
endfacet
facet normal -0.0 0.0 -1.0
outer loop
vertex 12.0 4.0 0.0
vertex 10.7561197281 2.63915729523 0.0
vertex 10.6894388199 2.68044447899 0.0
endloop
endfacet
facet normal 0.0 -0.0 -1.0
outer loop
vertex 10.6163063049 2.70877599716 0.0
vertex 12.0 4.0 0.0
vertex 10.6894388199 2.68044447899 0.0
endloop
endfacet
facet normal 0.0 0.0 -1.0
outer loop
vertex 10.6163063049 2.70877599716 0.0
vertex 10.5392141342 2.72318696976 0.0
vertex 12.0 4.0 0.0
endloop
endfacet
facet normal -0.0 0.0 -1.0
outer loop
vertex 12.0 4.0 0.0
vertex 10.5392141342 2.72318696976 0.0
vertex 10.4607858658 2.72318696976 0.0
endloop
endfacet
facet normal 0.0 -0.0 -1.0
outer loop
vertex 10.3836936951 2.70877599716 0.0
vertex 12.0 4.0 0.0
vertex 10.4607858658 2.72318696976 0.0
endloop
endfacet
facet normal 0.0 0.0 -1.0
outer loop
vertex 10.3836936951 2.70877599716 0.0
vertex 5.11250019073 3.19485569 0.0
vertex 12.0 4.0 0.0
endloop
endfacet
facet normal 0.0 0.0 -1.0
outer loop
vertex 10.3836936951 2.70877599716 0.0
vertex 5.15909910202 3.15909910202 0.0
vertex 5.11250019073 3.19485569 0.0
endloop
endfacet
facet normal 0.0 0.0 -1.0
outer loop
vertex 10.3836936951 2.70877599716 0.0
vertex 5.19485569 3.11249995232 0.0
vertex 5.15909910202 3.15909910202 0.0
endloop
endfacet
facet normal -0.0 0.0 -1.0
outer loop
vertex 10.3836936951 2.70877599716 0.0
vertex 10.3105611801 2.68044447899 0.0
vertex 5.19485569 3.11249995232 0.0
endloop
endfacet
facet normal -0.0 -0.0 -1.0
outer loop
vertex 5.19485569 3.11249995232 0.0
vertex 10.3105611801 2.68044447899 0.0
vertex 5.2173333168 3.05823421478 0.0
endloop
endfacet
facet normal 0.0 -0.0 -1.0
outer loop
vertex 5.2173333168 3.05823421478 0.0
vertex 10.3105611801 2.68044447899 0.0
vertex 10.2438802719 2.63915729523 0.0
endloop
endfacet
facet normal -0.0 -0.0 -1.0
outer loop
vertex 5.22499990463 3.0 0.0
vertex 10.2438802719 2.63915729523 0.0
vertex 5.2173333168 2.94176578522 0.0
endloop
endfacet
facet normal 0.0 0.0 -1.0
outer loop
vertex 5.22499990463 3.0 0.0
vertex 5.2173333168 3.05823421478 0.0
vertex 10.2438802719 2.63915729523 0.0
endloop
endfacet
facet normal -0.0 0.0 -1.0
outer loop
vertex 10.2438802719 2.63915729523 0.0
vertex 10.185921669 2.58632063866 0.0
vertex 5.2173333168 2.94176578522 0.0
endloop
endfacet
facet normal -0.0 -0.0 -1.0
outer loop
vertex 5.2173333168 2.94176578522 0.0
vertex 10.185921669 2.58632063866 0.0
vertex 5.19485569 2.88750004768 0.0
endloop
endfacet
facet normal 0.0 -0.0 -1.0
outer loop
vertex 5.19485569 2.88750004768 0.0
vertex 10.185921669 2.58632063866 0.0
vertex 10.1386575699 2.52373361588 0.0
endloop
endfacet
facet normal 0.0 -0.0 -1.0
outer loop
vertex 5.15909910202 2.84090089798 0.0
vertex 10.1386575699 2.52373361588 0.0
vertex 10.1036996841 2.45352768898 0.0
endloop
endfacet
facet normal 0.0 0.0 -1.0
outer loop
vertex 10.08223629 2.37809348106 0.0
vertex 5.15909910202 2.84090089798 0.0
vertex 10.1036996841 2.45352768898 0.0
endloop
endfacet
facet normal 0.0 0.0 -1.0
outer loop
vertex 10.08223629 2.37809348106 0.0
vertex 5.11250019073 2.80514431 0.0
vertex 5.15909910202 2.84090089798 0.0
endloop
endfacet
facet normal -0.0 0.0 -1.0
outer loop
vertex 10.08223629 2.37809348106 0.0
vertex 10.0749998093 2.29999995232 0.0
vertex 5.11250019073 2.80514431 0.0
endloop
endfacet
facet normal -0.0 -0.0 -1.0
outer loop
vertex 5.11250019073 2.80514431 0.0
vertex 10.0749998093 2.29999995232 0.0
vertex 5.05823421478 2.7826666832 0.0
endloop
endfacet
facet normal 0.0 0.0 -1.0
outer loop
vertex 5.05823421478 2.7826666832 0.0
vertex 10.0749998093 2.29999995232 0.0
vertex 10.0749998093 1.70000004768 0.0
endloop
endfacet
facet normal 0.0 -0.0 -1.0
outer loop
vertex 5.05823421478 1.2173333168 0.0
vertex 10.0749998093 1.70000004768 0.0
vertex 5.11250019073 1.19485569 0.0
endloop
endfacet
facet normal 0.0 0.0 -1.0
outer loop
vertex 5.05823421478 1.2173333168 0.0
vertex 5.05823421478 2.7826666832 0.0
vertex 10.0749998093 1.70000004768 0.0
endloop
endfacet
facet normal 0.0 0.0 -1.0
outer loop
vertex 5.05823421478 1.2173333168 0.0
vertex 5.0 1.22500002384 0.0
vertex 5.05823421478 2.7826666832 0.0
endloop
endfacet
facet normal -0.0 0.0 -1.0
outer loop
vertex 5.05823421478 2.7826666832 0.0
vertex 5.0 1.22500002384 0.0
vertex 5.0 2.77500009537 0.0
endloop
endfacet
facet normal 0.0 -0.0 -1.0
outer loop
vertex 5.0 2.77500009537 0.0
vertex 5.0 1.22500002384 0.0
vertex 4.94176578522 1.2173333168 0.0
endloop
endfacet
facet normal 0.0 -0.0 -1.0
outer loop
vertex 4.94176578522 2.7826666832 0.0
vertex 4.94176578522 1.2173333168 0.0
vertex 2.55823421478 1.2173333168 0.0
endloop
endfacet
facet normal -0.0 -0.0 -1.0
outer loop
vertex 2.55823421478 2.7826666832 0.0
vertex 2.55823421478 1.2173333168 0.0
vertex 2.5 2.77500009537 0.0
endloop
endfacet
facet normal 0.0 -0.0 -1.0
outer loop
vertex 2.55823421478 2.7826666832 0.0
vertex 4.94176578522 2.7826666832 0.0
vertex 2.55823421478 1.2173333168 0.0
endloop
endfacet
facet normal 0.0 0.0 -1.0
outer loop
vertex 2.55823421478 2.7826666832 0.0
vertex 4.88749980927 2.80514431 0.0
vertex 4.94176578522 2.7826666832 0.0
endloop
endfacet
facet normal 0.0 0.0 -1.0
outer loop
vertex 2.55823421478 2.7826666832 0.0
vertex 2.61249995232 2.80514431 0.0
vertex 4.88749980927 2.80514431 0.0
endloop
endfacet
facet normal -0.0 0.0 -1.0
outer loop
vertex 4.88749980927 2.80514431 0.0
vertex 2.61249995232 2.80514431 0.0
vertex 4.84090089798 2.84090089798 0.0
endloop
endfacet
facet normal -0.0 0.0 -1.0
outer loop
vertex 4.84090089798 2.84090089798 0.0
vertex 2.61249995232 2.80514431 0.0
vertex 2.65909910202 2.84090089798 0.0
endloop
endfacet
facet normal -0.0 0.0 -1.0
outer loop
vertex 4.80514431 2.88750004768 0.0
vertex 2.65909910202 2.84090089798 0.0
vertex 2.69485569 2.88750004768 0.0
endloop
endfacet
facet normal -0.0 0.0 -1.0
outer loop
vertex 4.7826666832 2.94176578522 0.0
vertex 2.69485569 2.88750004768 0.0
vertex 2.7173333168 2.94176578522 0.0
endloop
endfacet
facet normal -0.0 0.0 -1.0
outer loop
vertex 4.77500009537 3.0 0.0
vertex 2.7173333168 2.94176578522 0.0
vertex 2.72499990463 3.0 0.0
endloop
endfacet
facet normal -0.0 0.0 -1.0
outer loop
vertex 4.7826666832 3.05823421478 0.0
vertex 2.72499990463 3.0 0.0
vertex 2.7173333168 3.05823421478 0.0
endloop
endfacet
facet normal -0.0 0.0 -1.0
outer loop
vertex 4.80514431 3.11249995232 0.0
vertex 2.7173333168 3.05823421478 0.0
vertex 2.69485569 3.11249995232 0.0
endloop
endfacet
facet normal -0.0 0.0 -1.0
outer loop
vertex 4.84090089798 3.15909910202 0.0
vertex 2.69485569 3.11249995232 0.0
vertex 2.65909910202 3.15909910202 0.0
endloop
endfacet
facet normal -0.0 0.0 -1.0
outer loop
vertex 4.88749980927 3.19485569 0.0
vertex 2.65909910202 3.15909910202 0.0
vertex 2.61249995232 3.19485569 0.0
endloop
endfacet
facet normal -0.0 0.0 -1.0
outer loop
vertex 4.94176578522 3.2173333168 0.0
vertex 2.61249995232 3.19485569 0.0
vertex 2.55823421478 3.2173333168 0.0
endloop
endfacet
facet normal -0.0 0.0 -1.0
outer loop
vertex 5.0 3.22499990463 0.0
vertex 2.55823421478 3.2173333168 0.0
vertex 2.5 3.22499990463 0.0
endloop
endfacet
facet normal 0.0 -0.0 -1.0
outer loop
vertex 0.0 4.0 0.0
vertex 2.5 3.22499990463 0.0
vertex 2.44176578522 3.2173333168 0.0
endloop
endfacet
facet normal 0.0 0.0 -1.0
outer loop
vertex 2.38750004768 3.19485569 0.0
vertex 0.0 4.0 0.0
vertex 2.44176578522 3.2173333168 0.0
endloop
endfacet
facet normal -0.0 0.0 -1.0
outer loop
vertex 2.38750004768 3.19485569 0.0
vertex 2.34090089798 3.15909910202 0.0
vertex 0.0 4.0 0.0
endloop
endfacet
facet normal 0.0 -0.0 -1.0
outer loop
vertex 0.0 4.0 0.0
vertex 2.34090089798 3.15909910202 0.0
vertex 2.30514431 3.11249995232 0.0
endloop
endfacet
facet normal 0.0 0.0 -1.0
outer loop
vertex 2.2826666832 3.05823421478 0.0
vertex 0.0 4.0 0.0
vertex 2.30514431 3.11249995232 0.0
endloop
endfacet
facet normal -0.0 0.0 -1.0
outer loop
vertex 2.2826666832 3.05823421478 0.0
vertex 2.27500009537 3.0 0.0
vertex 0.0 4.0 0.0
endloop
endfacet
facet normal 0.0 0.0 -1.0
outer loop
vertex 0.0 4.0 0.0
vertex 2.27500009537 3.0 0.0
vertex 2.2826666832 2.94176578522 0.0
endloop
endfacet
facet normal 0.0 0.0 -1.0
outer loop
vertex 2.30514431 2.88750004768 0.0
vertex 0.0 4.0 0.0
vertex 2.2826666832 2.94176578522 0.0
endloop
endfacet
facet normal -0.0 -0.0 -1.0
outer loop
vertex 2.30514431 2.88750004768 0.0
vertex 2.34090089798 2.84090089798 0.0
vertex 0.0 4.0 0.0
endloop
endfacet
facet normal 0.0 -0.0 -1.0
outer loop
vertex 0.0 4.0 0.0
vertex 2.34090089798 2.84090089798 0.0
vertex 0.0 0.0 0.0
endloop
endfacet
facet normal 0.0 0.0 -1.0
outer loop
vertex 0.0 0.0 0.0
vertex 2.34090089798 2.84090089798 0.0
vertex 2.34090089798 1.15909898281 0.0
endloop
endfacet
facet normal -0.0 0.0 -1.0
outer loop
vertex 2.30514431 1.11249995232 0.0
vertex 0.0 0.0 0.0
vertex 2.34090089798 1.15909898281 0.0
endloop
endfacet
facet normal 0.0 0.0 -1.0
outer loop
vertex 2.30514431 1.11249995232 0.0
vertex 2.2826666832 1.05823433399 0.0
vertex 0.0 0.0 0.0
endloop
endfacet
facet normal 0.0 -0.0 -1.0
outer loop
vertex 0.0 0.0 0.0
vertex 2.2826666832 1.05823433399 0.0
vertex 2.27500009537 1.0 0.0
endloop
endfacet
facet normal -0.0 0.0 -1.0
outer loop
vertex 2.2826666832 0.941765725613 0.0
vertex 0.0 0.0 0.0
vertex 2.27500009537 1.0 0.0
endloop
endfacet
facet normal 0.0 -0.0 -1.0
outer loop
vertex 2.2826666832 0.941765725613 0.0
vertex 2.30514431 0.887499988079 0.0
vertex 0.0 0.0 0.0
endloop
endfacet
facet normal 0.0 0.0 -1.0
outer loop
vertex 0.0 0.0 0.0
vertex 2.30514431 0.887499988079 0.0
vertex 2.34090089798 0.840900957584 0.0
endloop
endfacet
facet normal -0.0 0.0 -1.0
outer loop
vertex 2.38750004768 0.805144309998 0.0
vertex 0.0 0.0 0.0
vertex 2.34090089798 0.840900957584 0.0
endloop
endfacet
facet normal 0.0 -0.0 -1.0
outer loop
vertex 2.38750004768 0.805144309998 0.0
vertex 2.44176578522 0.782666683197 0.0
vertex 0.0 0.0 0.0
endloop
endfacet
facet normal 0.0 0.0 -1.0
outer loop
vertex 0.0 0.0 0.0
vertex 2.44176578522 0.782666683197 0.0
vertex 2.5 0.774999976158 0.0
endloop
endfacet
facet normal -0.0 0.0 -1.0
outer loop
vertex 5.0 0.774999976158 0.0
vertex 2.5 0.774999976158 0.0
vertex 4.94176578522 0.782666683197 0.0
endloop
endfacet
facet normal -0.0 0.0 -1.0
outer loop
vertex 5.0 0.774999976158 0.0
vertex 0.0 0.0 0.0
vertex 2.5 0.774999976158 0.0
endloop
endfacet
facet normal -0.0 -0.0 -1.0
outer loop
vertex 5.0 0.774999976158 0.0
vertex 12.0 0.0 0.0
vertex 0.0 0.0 0.0
endloop
endfacet
facet normal 0.0 0.0 -1.0
outer loop
vertex 5.0 0.774999976158 0.0
vertex 5.05823421478 0.782666683197 0.0
vertex 12.0 0.0 0.0
endloop
endfacet
facet normal 0.0 0.0 -1.0
outer loop
vertex 12.0 0.0 0.0
vertex 5.05823421478 0.782666683197 0.0
vertex 5.11250019073 0.805144309998 0.0
endloop
endfacet
facet normal -0.0 0.0 -1.0
outer loop
vertex 10.3836936951 1.29122412205 0.0
vertex 5.11250019073 0.805144309998 0.0
vertex 5.15909910202 0.840900957584 0.0
endloop
endfacet
facet normal 0.0 -0.0 -1.0
outer loop
vertex 5.19485569 0.887499988079 0.0
vertex 10.3836936951 1.29122412205 0.0
vertex 5.15909910202 0.840900957584 0.0
endloop
endfacet
facet normal 0.0 0.0 -1.0
outer loop
vertex 5.19485569 0.887499988079 0.0
vertex 10.3105611801 1.31955564022 0.0
vertex 10.3836936951 1.29122412205 0.0
endloop
endfacet
facet normal 0.0 0.0 -1.0
outer loop
vertex 5.19485569 0.887499988079 0.0
vertex 5.2173333168 0.941765725613 0.0
vertex 10.3105611801 1.31955564022 0.0
endloop
endfacet
facet normal -0.0 0.0 -1.0
outer loop
vertex 10.3105611801 1.31955564022 0.0
vertex 5.2173333168 0.941765725613 0.0
vertex 10.2438802719 1.36084270477 0.0
endloop
endfacet
facet normal -0.0 0.0 -1.0
outer loop
vertex 10.2438802719 1.36084270477 0.0
vertex 5.2173333168 0.941765725613 0.0
vertex 5.22499990463 1.0 0.0
endloop
endfacet
facet normal 0.0 -0.0 -1.0
outer loop
vertex 5.2173333168 1.05823433399 0.0
vertex 10.2438802719 1.36084270477 0.0
vertex 5.22499990463 1.0 0.0
endloop
endfacet
facet normal 0.0 0.0 -1.0
outer loop
vertex 5.2173333168 1.05823433399 0.0
vertex 10.185921669 1.41367936134 0.0
vertex 10.2438802719 1.36084270477 0.0
endloop
endfacet
facet normal 0.0 0.0 -1.0
outer loop
vertex 5.2173333168 1.05823433399 0.0
vertex 5.19485569 1.11249995232 0.0
vertex 10.185921669 1.41367936134 0.0
endloop
endfacet
facet normal -0.0 0.0 -1.0
outer loop
vertex 10.185921669 1.41367936134 0.0
vertex 5.19485569 1.11249995232 0.0
vertex 10.1386575699 1.47626638412 0.0
endloop
endfacet
facet normal -0.0 0.0 -1.0
outer loop
vertex 10.1386575699 1.47626638412 0.0
vertex 5.19485569 1.11249995232 0.0
vertex 5.15909910202 1.15909898281 0.0
endloop
endfacet
facet normal -0.0 0.0 -1.0
outer loop
vertex 10.1036996841 1.54647231102 0.0
vertex 5.15909910202 1.15909898281 0.0
vertex 10.08223629 1.62190639973 0.0
endloop
endfacet
facet normal 0.0 -0.0 -1.0
outer loop
vertex 10.1036996841 1.54647231102 0.0
vertex 10.1386575699 1.47626638412 0.0
vertex 5.15909910202 1.15909898281 0.0
endloop
endfacet
facet normal -0.0 -0.0 -1.0
outer loop
vertex 5.19485569 2.88750004768 0.0
vertex 10.1386575699 2.52373361588 0.0
vertex 5.15909910202 2.84090089798 0.0
endloop
endfacet
facet normal 0.0 -0.0 -1.0
outer loop
vertex 10.0749998093 1.70000004768 0.0
vertex 10.08223629 1.62190639973 0.0
vertex 5.11250019073 1.19485569 0.0
endloop
endfacet
facet normal 0.0 -0.0 -1.0
outer loop
vertex 5.11250019073 1.19485569 0.0
vertex 10.08223629 1.62190639973 0.0
vertex 5.15909910202 1.15909898281 0.0
endloop
endfacet
facet normal 0.0 0.0 -1.0
outer loop
vertex 5.11250019073 0.805144309998 0.0
vertex 10.3836936951 1.29122412205 0.0
vertex 12.0 0.0 0.0
endloop
endfacet
facet normal 0.0 0.0 -1.0
outer loop
vertex 12.0 0.0 0.0
vertex 10.3836936951 1.29122412205 0.0
vertex 10.4607858658 1.27681303024 0.0
endloop
endfacet
facet normal -0.0 -0.0 -1.0
outer loop
vertex 10.5392141342 1.27681303024 0.0
vertex 12.0 0.0 0.0
vertex 10.4607858658 1.27681303024 0.0
endloop
endfacet
facet normal 0.0 0.0 -1.0
outer loop
vertex 10.5392141342 1.27681303024 0.0
vertex 10.6163063049 1.29122412205 0.0
vertex 12.0 0.0 0.0
endloop
endfacet
facet normal 0.0 0.0 -1.0
outer loop
vertex 12.0 0.0 0.0
vertex 10.6163063049 1.29122412205 0.0
vertex 10.6894388199 1.31955564022 0.0
endloop
endfacet
facet normal -0.0 -0.0 -1.0
outer loop
vertex 10.7561197281 1.36084270477 0.0
vertex 12.0 0.0 0.0
vertex 10.6894388199 1.31955564022 0.0
endloop
endfacet
facet normal 0.0 0.0 -1.0
outer loop
vertex 10.7561197281 1.36084270477 0.0
vertex 10.814078331 1.41367936134 0.0
vertex 12.0 0.0 0.0
endloop
endfacet
facet normal 0.0 0.0 -1.0
outer loop
vertex 12.0 0.0 0.0
vertex 10.814078331 1.41367936134 0.0
vertex 10.8613424301 1.47626638412 0.0
endloop
endfacet
facet normal -0.0 -0.0 -1.0
outer loop
vertex 10.8963003159 1.54647231102 0.0
vertex 12.0 0.0 0.0
vertex 10.8613424301 1.47626638412 0.0
endloop
endfacet
facet normal 0.0 0.0 -1.0
outer loop
vertex 10.8963003159 1.54647231102 0.0
vertex 10.91776371 1.62190639973 0.0
vertex 12.0 0.0 0.0
endloop
endfacet
facet normal 0.0 0.0 -1.0
outer loop
vertex 12.0 0.0 0.0
vertex 10.91776371 1.62190639973 0.0
vertex 10.9250001907 1.70000004768 0.0
endloop
endfacet
facet normal -0.0 -0.0 -1.0
outer loop
vertex 10.9250001907 2.29999995232 0.0
vertex 12.0 0.0 0.0
vertex 10.9250001907 1.70000004768 0.0
endloop
endfacet
facet normal 0.0 0.0 -1.0
outer loop
vertex 10.9250001907 2.29999995232 0.0
vertex 12.0 4.0 0.0
vertex 12.0 0.0 0.0
endloop
endfacet
facet normal 0.0 -0.0 -1.0
outer loop
vertex 2.55823421478 1.2173333168 0.0
vertex 4.94176578522 1.2173333168 0.0
vertex 2.61249995232 1.19485569 0.0
endloop
endfacet
facet normal 0.0 -0.0 -1.0
outer loop
vertex 2.61249995232 1.19485569 0.0
vertex 4.94176578522 1.2173333168 0.0
vertex 4.88749980927 1.19485569 0.0
endloop
endfacet
facet normal 0.0 -0.0 -1.0
outer loop
vertex 2.65909910202 1.15909898281 0.0
vertex 4.88749980927 1.19485569 0.0
vertex 4.84090089798 1.15909898281 0.0
endloop
endfacet
facet normal 0.0 -0.0 -1.0
outer loop
vertex 2.69485569 1.11249995232 0.0
vertex 4.84090089798 1.15909898281 0.0
vertex 4.80514431 1.11249995232 0.0
endloop
endfacet
facet normal 0.0 -0.0 -1.0
outer loop
vertex 2.7173333168 1.05823433399 0.0
vertex 4.80514431 1.11249995232 0.0
vertex 4.7826666832 1.05823433399 0.0
endloop
endfacet
facet normal 0.0 -0.0 -1.0
outer loop
vertex 2.72499990463 1.0 0.0
vertex 4.7826666832 1.05823433399 0.0
vertex 4.77500009537 1.0 0.0
endloop
endfacet
facet normal 0.0 0.0 -1.0
outer loop
vertex 2.7173333168 0.941765725613 0.0
vertex 4.77500009537 1.0 0.0
vertex 4.7826666832 0.941765725613 0.0
endloop
endfacet
facet normal 0.0 0.0 -1.0
outer loop
vertex 2.69485569 0.887499988079 0.0
vertex 4.7826666832 0.941765725613 0.0
vertex 4.80514431 0.887499988079 0.0
endloop
endfacet
facet normal 0.0 0.0 -1.0
outer loop
vertex 2.65909910202 0.840900957584 0.0
vertex 4.80514431 0.887499988079 0.0
vertex 4.84090089798 0.840900957584 0.0
endloop
endfacet
facet normal 0.0 0.0 -1.0
outer loop
vertex 2.61249995232 0.805144309998 0.0
vertex 4.84090089798 0.840900957584 0.0
vertex 4.88749980927 0.805144309998 0.0
endloop
endfacet
facet normal 0.0 0.0 -1.0
outer loop
vertex 2.55823421478 0.782666683197 0.0
vertex 4.88749980927 0.805144309998 0.0
vertex 4.94176578522 0.782666683197 0.0
endloop
endfacet
facet normal 0.0 0.0 -1.0
outer loop
vertex 2.5 0.774999976158 0.0
vertex 2.55823421478 0.782666683197 0.0
vertex 4.94176578522 0.782666683197 0.0
endloop
endfacet
facet normal 0.0 -0.0 -1.0
outer loop
vertex 2.61249995232 1.19485569 0.0
vertex 4.88749980927 1.19485569 0.0
vertex 2.65909910202 1.15909898281 0.0
endloop
endfacet
facet normal 0.0 -0.0 -1.0
outer loop
vertex 2.65909910202 1.15909898281 0.0
vertex 4.84090089798 1.15909898281 0.0
vertex 2.69485569 1.11249995232 0.0
endloop
endfacet
facet normal 0.0 -0.0 -1.0
outer loop
vertex 2.69485569 1.11249995232 0.0
vertex 4.80514431 1.11249995232 0.0
vertex 2.7173333168 1.05823433399 0.0
endloop
endfacet
facet normal 0.0 -0.0 -1.0
outer loop
vertex 2.7173333168 1.05823433399 0.0
vertex 4.7826666832 1.05823433399 0.0
vertex 2.72499990463 1.0 0.0
endloop
endfacet
facet normal 0.0 -0.0 -1.0
outer loop
vertex 2.72499990463 1.0 0.0
vertex 4.77500009537 1.0 0.0
vertex 2.7173333168 0.941765725613 0.0
endloop
endfacet
facet normal 0.0 -0.0 -1.0
outer loop
vertex 2.7173333168 0.941765725613 0.0
vertex 4.7826666832 0.941765725613 0.0
vertex 2.69485569 0.887499988079 0.0
endloop
endfacet
facet normal 0.0 -0.0 -1.0
outer loop
vertex 2.69485569 0.887499988079 0.0
vertex 4.80514431 0.887499988079 0.0
vertex 2.65909910202 0.840900957584 0.0
endloop
endfacet
facet normal 0.0 -0.0 -1.0
outer loop
vertex 2.65909910202 0.840900957584 0.0
vertex 4.84090089798 0.840900957584 0.0
vertex 2.61249995232 0.805144309998 0.0
endloop
endfacet
facet normal 0.0 -0.0 -1.0
outer loop
vertex 2.61249995232 0.805144309998 0.0
vertex 4.88749980927 0.805144309998 0.0
vertex 2.55823421478 0.782666683197 0.0
endloop
endfacet
facet normal 0.0 0.0 -1.0
outer loop
vertex 5.11250019073 3.19485569 0.0
vertex 5.05823421478 3.2173333168 0.0
vertex 12.0 4.0 0.0
endloop
endfacet
facet normal -0.0 0.0 -1.0
outer loop
vertex 12.0 4.0 0.0
vertex 5.05823421478 3.2173333168 0.0
vertex 5.0 3.22499990463 0.0
endloop
endfacet
facet normal 0.0 -0.0 -1.0
outer loop
vertex 0.0 4.0 0.0
vertex 5.0 3.22499990463 0.0
vertex 2.5 3.22499990463 0.0
endloop
endfacet
facet normal 0.0 -0.0 -1.0
outer loop
vertex 0.0 4.0 0.0
vertex 12.0 4.0 0.0
vertex 5.0 3.22499990463 0.0
endloop
endfacet
facet normal 0.0 0.0 -1.0
outer loop
vertex 5.0 3.22499990463 0.0
vertex 4.94176578522 3.2173333168 0.0
vertex 2.55823421478 3.2173333168 0.0
endloop
endfacet
facet normal 0.0 0.0 -1.0
outer loop
vertex 4.94176578522 3.2173333168 0.0
vertex 4.88749980927 3.19485569 0.0
vertex 2.61249995232 3.19485569 0.0
endloop
endfacet
facet normal 0.0 0.0 -1.0
outer loop
vertex 4.88749980927 3.19485569 0.0
vertex 4.84090089798 3.15909910202 0.0
vertex 2.65909910202 3.15909910202 0.0
endloop
endfacet
facet normal 0.0 0.0 -1.0
outer loop
vertex 4.84090089798 3.15909910202 0.0
vertex 4.80514431 3.11249995232 0.0
vertex 2.69485569 3.11249995232 0.0
endloop
endfacet
facet normal 0.0 0.0 -1.0
outer loop
vertex 4.80514431 3.11249995232 0.0
vertex 4.7826666832 3.05823421478 0.0
vertex 2.7173333168 3.05823421478 0.0
endloop
endfacet
facet normal 0.0 0.0 -1.0
outer loop
vertex 4.7826666832 3.05823421478 0.0
vertex 4.77500009537 3.0 0.0
vertex 2.72499990463 3.0 0.0
endloop
endfacet
facet normal 0.0 -0.0 -1.0
outer loop
vertex 4.77500009537 3.0 0.0
vertex 4.7826666832 2.94176578522 0.0
vertex 2.7173333168 2.94176578522 0.0
endloop
endfacet
facet normal 0.0 -0.0 -1.0
outer loop
vertex 4.7826666832 2.94176578522 0.0
vertex 4.80514431 2.88750004768 0.0
vertex 2.69485569 2.88750004768 0.0
endloop
endfacet
facet normal 0.0 -0.0 -1.0
outer loop
vertex 4.80514431 2.88750004768 0.0
vertex 4.84090089798 2.84090089798 0.0
vertex 2.65909910202 2.84090089798 0.0
endloop
endfacet
facet normal 0.0 -0.0 -1.0
outer loop
vertex 4.94176578522 2.7826666832 0.0
vertex 5.0 2.77500009537 0.0
vertex 4.94176578522 1.2173333168 0.0
endloop
endfacet
facet normal 0.0 0.0 -1.0
outer loop
vertex 2.55823421478 1.2173333168 0.0
vertex 2.5 1.22500002384 0.0
vertex 2.5 2.77500009537 0.0
endloop
endfacet
facet normal 0.0 -0.0 -1.0
outer loop
vertex 2.5 2.77500009537 0.0
vertex 2.5 1.22500002384 0.0
vertex 2.44176578522 1.2173333168 0.0
endloop
endfacet
facet normal 0.0 -0.0 -1.0
outer loop
vertex 2.44176578522 2.7826666832 0.0
vertex 2.44176578522 1.2173333168 0.0
vertex 2.38750004768 1.19485569 0.0
endloop
endfacet
facet normal -0.0 -0.0 -1.0
outer loop
vertex 2.38750004768 2.80514431 0.0
vertex 2.38750004768 1.19485569 0.0
vertex 2.34090089798 2.84090089798 0.0
endloop
endfacet
facet normal 0.0 -0.0 -1.0
outer loop
vertex 2.38750004768 2.80514431 0.0
vertex 2.44176578522 2.7826666832 0.0
vertex 2.38750004768 1.19485569 0.0
endloop
endfacet
facet normal -0.0 0.0 -1.0
outer loop
vertex 2.5 2.77500009537 0.0
vertex 2.44176578522 1.2173333168 0.0
vertex 2.44176578522 2.7826666832 0.0
endloop
endfacet
facet normal -0.0 0.0 -1.0
outer loop
vertex 2.38750004768 1.19485569 0.0
vertex 2.34090089798 1.15909898281 0.0
vertex 2.34090089798 2.84090089798 0.0
endloop
endfacet
endsolid bauteil1